<svg viewBox="0 0 32 32">
  <title>img-autofeedback</title>
  <style>
    :host {
      --stroke-width: 2;
    }

    :host {
      font-size: 24px;
      stroke: inherit;
    }

    :host path {
      stroke-width: var(--stroke-width);
      fill: currentColor;
      stroke-linecap: round;
      stroke-linejoin: round;
    }

    :host(.ion-color) path {
      --stroke: var(--ion-color-base) !important;
    }

    :host([tp-size='sm']) {      font-size: 16px;
    }

    :host([tp-size='md']) {      font-size: 32px;
    }

    :host([tp-size='lg']) {      font-size: 48px;
    }
  </style>
  <path d="M10.806 16.589c0.034-0.018 0.073-0.028 0.116-0.028 0.14 0 0.254 0.114 0.254 0.254 0 0.049-0.014 0.094-0.038 0.133l0.001-0.001c-0.961 0.896-1.56 2.169-1.56 3.582 0 1.287 0.497 2.457 1.309 3.331l-0.003-0.003c0.018 0.034 0.028 0.073 0.028 0.116 0 0.14-0.114 0.254-0.254 0.254-0.049 0-0.094-0.014-0.133-0.038l0.001 0.001c-0.889-0.958-1.435-2.245-1.435-3.661 0-1.554 0.658-2.955 1.711-3.938l0.003-0.003z"></path>
  <path d="M11.223 18.347c-0.005 0.039-0.008 0.083-0.008 0.128 0 0.213 0.065 0.412 0.175 0.576l-0.002-0.004c-0.215 0.435-0.341 0.947-0.341 1.489 0 0.897 0.345 1.713 0.909 2.323l-0.002-0.002c0.018 0.034 0.028 0.073 0.028 0.116 0 0.14-0.114 0.254-0.254 0.254-0.049 0-0.094-0.014-0.133-0.038l0.001 0.001c-0.645-0.696-1.041-1.63-1.041-2.657 0-0.815 0.249-1.573 0.676-2.199l-0.009 0.014z"></path>
  <path d="M13.029 21.862c0.018 0.034 0.028 0.073 0.028 0.116 0 0.14-0.114 0.254-0.254 0.254-0.049 0-0.094-0.014-0.133-0.038l0.001 0.001c-0.403-0.435-0.65-1.019-0.65-1.66 0-0.399 0.096-0.776 0.265-1.109l-0.006 0.014c0.186 0.037 0.347 0.083 0.502 0.142l-0.021-0.007c-0.158 0.276-0.252 0.607-0.252 0.959 0 0.514 0.198 0.981 0.522 1.33l-0.001-0.001z"></path>
  <path d="M31.571 11.022c-0.415-1.431-1.115-2.666-2.039-3.696l0.008 0.009c-0.937-1.009-2.106-1.789-3.425-2.255l-0.060-0.018s-2.657-1.1-6.474-0.157c-1.529 0.481-2.825 1.333-3.828 2.453l-0.007 0.008-0.104 0.122c-0.954-3.326-3.969-5.719-7.542-5.719-4.271 0-7.744 3.419-7.831 7.669l-0 0.008-0.269 12.673c-0.001 0.044-0.001 0.095-0.001 0.147 0 4.271 3.41 7.745 7.657 7.848l0.010 0h0.168c3.768-0.011 6.911-2.673 7.661-6.219l0.009-0.051h0.033l3.487-0.371v4.416c-0.001 0.011-0.001 0.023-0.001 0.036s0 0.025 0.001 0.037l-0-0.002v0.442c0 0.264 0.214 0.477 0.477 0.477v0h6.174c0.263-0.001 0.476-0.214 0.477-0.477v-4.274c0.003-0.7 0.379-1.312 0.939-1.648l0.009-0.005c1.466-0.885 2.662-2.074 3.53-3.488l0.026-0.045c0.69-1.093 1.159-2.392 1.312-3.787l0.004-0.040c0.029-0.298 0.045-0.644 0.045-0.994 0-1.104-0.162-2.17-0.464-3.175l0.020 0.078zM12.543 27.197c-1.212 1.176-2.868 1.902-4.692 1.902-0.057 0-0.115-0.001-0.172-0.002l0.008 0c-3.704-0.090-6.673-3.115-6.673-6.832 0-0.044 0-0.089 0.001-0.133l-0 0.007 0.254-12.673c0.087-3.703 3.109-6.672 6.825-6.672 0.002 0 0.003 0 0.005 0h0.145c3.332 0.076 6.069 2.529 6.585 5.726l0.005 0.039c-0.891 1.431-1.42 3.168-1.42 5.029 0 0.33 0.017 0.656 0.049 0.978l-0.003-0.040-1.554 2.7c-0.131 0.171-0.21 0.388-0.21 0.623 0 0.273 0.106 0.521 0.279 0.705l-0.001-0.001c0.135 0.142 0.287 0.168 0.576 0.221 0.319 0.034 0.609 0.131 0.866 0.28l-0.011-0.006 0.053 0.65 0.056 0.762 0.96 0.112 0.279 0.028c0.157 0.007 0.301 0.056 0.422 0.137l-0.003-0.002v0.279c-0.102 0.071-0.226 0.118-0.361 0.129l-0.003 0-0.292 0.041-0.952 0.135 0.053 0.762v0.185c0.032 0.484 0.264 0.909 0.612 1.196l0.003 0.002c0.075 0.067 0.158 0.128 0.247 0.181l0.007 0.004c-0.29 1.405-0.98 2.617-1.943 3.546l-0.002 0.002zM31.032 15.032c-0.178 2.095-1.618 4.955-4.422 6.626-0.849 0.509-1.41 1.423-1.415 2.468v3.81h-5.216v-4.985c-0.004-0.14-0.069-0.264-0.169-0.347l-0.001-0.001c-0.081-0.075-0.189-0.121-0.309-0.121-0.021 0-0.042 0.001-0.062 0.004l-4.005 0.429c-0.025 0.003-0.053 0.004-0.082 0.004-0.189 0-0.362-0.069-0.495-0.183l0.001 0.001c-0.095-0.083-0.17-0.187-0.217-0.305l-0.002-0.005c-0.029-0.067-0.049-0.144-0.056-0.226l-0-0.003-0.018-0.254 0.345-0.048c0.62-0.086 1.016-0.416 1.016-0.838v-0.378c0-0.444-0.444-0.785-1.107-0.851l-0.406-0.038-0.061-0.833c-0.048-0.823-1.077-1.016-1.628-1.123-0.011-0.001-0.024-0.002-0.037-0.002s-0.026 0.001-0.038 0.002l0.002-0 0.018-0.036c0.018-0.019 0.033-0.042 0.043-0.067l0.001-0.001 1.63-2.86c0.039-0.071 0.063-0.155 0.063-0.245 0-0.015-0.001-0.030-0.002-0.044l0 0.002c-0.033-0.289-0.052-0.625-0.052-0.965 0-1.094 0.197-2.141 0.558-3.11l-0.020 0.062c0.264-0.713 0.595-1.329 0.997-1.891l-0.016 0.024c0.909-1.278 2.174-2.25 3.65-2.777l0.053-0.017c0.889-0.293 1.913-0.463 2.976-0.463 1.253 0 2.451 0.235 3.552 0.663l-0.067-0.023c1.095 0.434 2.023 1.080 2.774 1.892l0.005 0.005c1.623 1.742 2.448 4.381 2.222 7.045z"></path>
  <path d="M8.78 18.679c0.007-0.016 0.014-0.036 0.019-0.057l0.001-0.004c0.009-0.029 0.017-0.064 0.022-0.1l0-0.004s0-0.015 0-0.020c0.005-0.041 0.009-0.088 0.009-0.136s-0.003-0.095-0.009-0.141l0.001 0.005c-0.023-0.194-0.096-0.367-0.205-0.51l0.002 0.003-1.549-2.702c0.031-0.288 0.049-0.622 0.049-0.96 0-2.383-0.885-4.56-2.344-6.22l0.009 0.011c-0.503-0.559-1.071-1.045-1.697-1.45l-0.033-0.020c-0.156 0.234-0.312 0.506-0.449 0.789l-0.018 0.042c0.567 0.37 1.057 0.789 1.488 1.264l0.006 0.006c1.3 1.485 2.093 3.442 2.093 5.585 0 0.359-0.022 0.713-0.065 1.060l0.004-0.041c-0.002 0.014-0.002 0.031-0.002 0.048 0 0.088 0.024 0.17 0.065 0.241l-0.001-0.002 1.628 2.86c0.012 0.026 0.027 0.049 0.044 0.069l-0-0v0.028c-0.011-0.002-0.024-0.003-0.037-0.003s-0.026 0.001-0.038 0.003l0.001-0c-0.551 0.104-1.58 0.3-1.63 1.12l-0.058 0.833-0.406 0.041c-0.663 0.064-1.11 0.404-1.11 0.848v0.368c0 0.422 0.401 0.762 1.016 0.838l0.345 0.048-0.018 0.254c-0.008 0.085-0.029 0.164-0.060 0.236l0.002-0.005c-0.048 0.123-0.123 0.226-0.217 0.306l-0.001 0.001c-0.087 0.074-0.192 0.129-0.307 0.156l-0.005 0.001c-0.056 0.015-0.12 0.023-0.187 0.023-0.024 0-0.047-0.001-0.070-0.003l0.003 0-3.38-0.345c0.014 0.35 0.052 0.679 0.111 1.001l-0.007-0.043 3.208 0.343c0.056 0.006 0.121 0.010 0.187 0.010 0.908 0 1.652-0.703 1.717-1.594l0-0.006v-0.183l0.053-0.762-1.242-0.175c-0.136-0.013-0.26-0.059-0.366-0.129l0.003 0.002v-0.284c0.121-0.081 0.269-0.132 0.427-0.14l0.002-0 0.279-0.025 0.968-0.094 0.053-0.762 0.048-0.653c0.047-0.040 0.103-0.071 0.164-0.090l0.003-0.001c0.133-0.051 0.294-0.098 0.46-0.131l0.020-0.003 0.211-0.043c0.287-0.056 0.439-0.079 0.574-0.221 0.038-0.040 0.073-0.084 0.104-0.131l0.002-0.004c0-0.003 0.001-0.006 0.001-0.009s-0-0.006-0.001-0.009l0 0c0.025-0.039 0.049-0.084 0.069-0.131l0.002-0.006c0.023-0.036 0.033-0.061 0.041-0.086z"></path>
</svg>
