<svg viewBox="0 0 32 32">
  <title>img-orientacoes</title>
  <style>
    :host {
      --stroke-width: 2;
    }

    :host {
      font-size: 24px;
      stroke: inherit;
    }

    :host path {
      stroke-width: var(--stroke-width);
      fill: currentColor;
      stroke-linecap: round;
      stroke-linejoin: round;
    }

    :host(.ion-color) path {
      --stroke: var(--ion-color-base) !important;
    }

    :host([tp-size='sm']) {      font-size: 16px;
    }

    :host([tp-size='md']) {      font-size: 32px;
    }

    :host([tp-size='lg']) {      font-size: 48px;
    }
  </style>
  <path d="M19.759 23.63v0c-0.221-0.043-0.392-0.215-0.435-0.432l-0.001-0.003-0.881-4.173-2.885 1.896c-0.083 0.057-0.185 0.091-0.295 0.091-0.148 0-0.281-0.061-0.376-0.159l-0-0c-0.099-0.096-0.161-0.23-0.161-0.378 0-0.112 0.035-0.215 0.094-0.3l-0.001 0.002 1.891-2.885-4.16-0.868c-0.254-0.057-0.441-0.281-0.441-0.548s0.187-0.491 0.437-0.547l0.004-0.001 4.155-0.866-1.896-2.885c-0.095-0.095-0.153-0.226-0.153-0.371 0-0.29 0.235-0.526 0.526-0.526 0.146 0 0.277 0.059 0.372 0.155v0l2.885 1.896 0.866-4.157c0.053-0.249 0.266-0.434 0.523-0.446l0.001-0c0.006-0 0.013-0 0.020-0 0.27 0 0.495 0.189 0.551 0.443l0.001 0.004 0.847 4.102 2.814-1.836c0.078-0.051 0.174-0.082 0.277-0.082 0.009 0 0.017 0 0.026 0.001l-0.001-0c0.007-0 0.015-0.001 0.023-0.001 0.29 0 0.525 0.235 0.525 0.525 0 0.117-0.038 0.224-0.102 0.311l0.001-0.001-1.883 2.885 4.236 0.881c0.259 0.052 0.451 0.278 0.451 0.548s-0.192 0.496-0.447 0.548l-0.004 0.001-4.226 0.86 1.883 2.885c0.093 0.095 0.151 0.225 0.151 0.369 0 0.29-0.235 0.525-0.525 0.525-0.146 0-0.279-0.060-0.374-0.156l-0-0-2.807-1.836-0.855 4.084c-0.056 0.256-0.28 0.446-0.548 0.449h-0zM18.253 16.651c0.418 0.085 0.742 0.408 0.825 0.82l0.001 0.007 0.787 5.049 0.787-5.049c0.091-0.414 0.412-0.735 0.819-0.825l0.007-0.001 5.052-0.787-5.049-0.787c-0.415-0.089-0.737-0.411-0.825-0.819l-0.001-0.007-0.787-5.052-0.787 4.511c-0.087 0.955-0.409 1.277-0.824 1.367l-5.052 0.787zM15.874 19.848l2.224-1.726-0.039-0.186c-0.031-0.13-0.132-0.231-0.26-0.262l-0.197-0.040zM23.743 19.848l-1.71-2.222-0.194 0.039c-0.131 0.029-0.233 0.131-0.262 0.26l-0 0.002-0.039 0.186zM21.561 13.802c0.029 0.131 0.131 0.233 0.26 0.262l0.002 0 0.194 0.042 1.723-2.224-2.232 1.726zM17.597 14.114l0.194-0.042c0.131-0.029 0.233-0.131 0.262-0.26l0-0.002 0.045-0.171-2.227-1.729z"></path>
  <path d="M29.385 17.647v-3.549h0.955v2.765h1.744v0.784h-2.699z"></path>
  <path d="M20.671 6.345l-0.045-0.068-1.062-1.293c-0.21-0.262-0.449-0.556-0.543-0.711v2.064h-0.858v-3.452h0.808l1.12 1.311 0.047 0.060c0.223 0.281 0.433 0.548 0.525 0.674v0-2.046h0.863v3.449h-0.745z"></path>
  <path d="M19.9 28.999c-0.001 0-0.002 0-0.003 0-0.521 0-1.014-0.122-1.451-0.339l0.019 0.009-0.134-0.066 0.22-0.622 0.38 0.063c0.283 0.069 0.612 0.114 0.949 0.126l0.008 0c0.37 0 0.569-0.105 0.569-0.286s-0.1-0.21-0.488-0.302l-0.367-0.079c-0.627-0.157-1.201-0.393-1.201-1.049 0-0.601 0.643-1.049 1.495-1.049 0 0 0.001 0 0.001 0 0.416 0 0.813 0.080 1.177 0.225l-0.021-0.008 0.139 0.052-0.16 0.643h-1.144c-0.525 0-0.593 0.039-0.593 0.181s0.052 0.168 0.341 0.228l0.462 0.11c0.944 0.223 1.262 0.488 1.262 1.049 0 0.635-0.627 1.112-1.461 1.112z"></path>
  <path d="M6.009 13.327v-2.224l3.853 2.224-3.853 2.224v-2.224z"></path>
  <path d="M13.781 18.552h-13.453c0 0 0 0 0 0-0.18 0-0.326-0.145-0.328-0.325v-9.928c0-0.181 0.147-0.328 0.328-0.328v0h13.453c0.181 0 0.328 0.147 0.328 0.328v0 5.353c0.001 0.010 0.002 0.022 0.002 0.034 0 0.181-0.147 0.328-0.328 0.328-0.173 0-0.314-0.134-0.327-0.303l-0-0.001c-0.001-0.009-0.002-0.019-0.002-0.029s0.001-0.020 0.002-0.030l-0 0.001v-5.028h-12.803v9.275h13.128c0.010-0.001 0.022-0.002 0.034-0.002 0.181 0 0.328 0.147 0.328 0.328 0 0.173-0.134 0.314-0.303 0.327l-0.001 0c-0.009 0.001-0.019 0.002-0.029 0.002s-0.020-0.001-0.030-0.002l0.001 0z"></path>
</svg>
