<svg viewBox="0 0 32 32">
  <title>img-provas-irmas</title>
  <style>
    :host {
      --stroke-width: 2;
    }

    :host {
      font-size: 24px;
      stroke: inherit;
    }

    :host path {
      stroke-width: var(--stroke-width);
      fill: currentColor;
      stroke-linecap: round;
      stroke-linejoin: round;
    }

    :host(.ion-color) path {
      --stroke: var(--ion-color-base) !important;
    }

    :host([tp-size='sm']) {      font-size: 16px;
    }

    :host([tp-size='md']) {      font-size: 32px;
    }

    :host([tp-size='lg']) {      font-size: 48px;
    }
  </style>
  <path d="M4.533 21.533h5.733v1.067h-5.733v-1.067z"></path>
  <path d="M4.533 15.133h5.733v1.067h-5.733v-1.067z"></path>
  <path d="M4.533 24.8h4.733v1.067h-4.733v-1.067z"></path>
  <path d="M4.533 11.933h4.733v1.067h-4.733v-1.067z"></path>
  <path d="M4.533 18.4h7.133v1.067h-7.133v-1.067z"></path>
  <path d="M31.333 3.2c0 0 0 0 0 0l-15.467-3.2c-0.133 0-0.267 0-0.4 0.067l-5.6 3.733h-3.667c-0.2 0.067-0.333 0.067-0.4 0.2l-5.333 5.4c-0.067 0.067-0.133 0.2-0.133 0.4v21.467c0 0.267 0.2 0.533 0.533 0.533 0 0 0 0 0 0h21.067c0.267 0 0.533-0.2 0.533-0.533 0 0 0 0 0 0v-1.333l3.2 0.667c0.267 0.067 0.533-0.133 0.6-0.4 0 0 0 0 0 0l5.467-26.267c0.067-0.4-0.133-0.667-0.4-0.733zM15 1.667l-0.467 2.2h-2.8l3.267-2.2zM5.667 5.6v3.533h-3.533l3.533-3.533zM21.467 30.667h-20.067v-20.4h4.8c0.267 0 0.533-0.2 0.533-0.533 0 0 0 0 0 0v-4.867h14.8v25.8zM25.4 29.4h-0.067l-2.867-0.6v-4.4l1 0.2 0.2-1.067-1.267-0.267v-2.2l1.667 0.333 0.2-1.067-1.8-0.333v-2.133l2.333 0.467 0.2-1.067-2.533-0.533v-2.2l3 0.6 0.2-1.067-3.2-0.667v-2.2l3.6 0.8 0.267-1.067-3.867-0.8v-5.733c0-0.267-0.2-0.533-0.533-0.533 0 0 0 0 0 0h-6.267l0.533-2.733 14.467 3-5.267 25.267z"></path>
  <path d="M18.133 12.133c0.067 0.067 0.133 0.2 0.2 0.333h-5.4c0.067-0.133 0.133-0.267 0.2-0.333 0.133-0.2 0.133-0.4-0.067-0.6v0c-0.2-0.2-0.533-0.133-0.667 0.067-1.133 1.533-1 3.733 0.333 5.133l2.2 2.2-2.2 2.2c0 0 0 0 0 0-1.4 1.4-1.533 3.6-0.333 5.133 0.133 0.2 0.467 0.2 0.667 0.067v0c0.133-0.133 0.2-0.4 0.067-0.6-0.067-0.133-0.133-0.2-0.2-0.333h5.4c-0.067 0.133-0.133 0.2-0.2 0.333-0.133 0.2-0.133 0.467 0.067 0.6v0c0.2 0.2 0.533 0.133 0.667-0.067 1.133-1.533 1-3.733-0.333-5.133l-2.2-2.267 2.2-2.2c1.4-1.4 1.533-3.6 0.333-5.133-0.133-0.2-0.467-0.267-0.667-0.067v0c-0.133 0.2-0.2 0.467-0.067 0.667zM15.667 18.267l-1.267-1.267h2.467l-1.2 1.267zM13.467 21.733v0l0.067-0.067h4.267l0.067 0.067c0.267 0.267 0.467 0.533 0.6 0.867h-5.667c0.2-0.267 0.4-0.6 0.667-0.867v0zM18.733 24.467l-6.067 0.067c-0.067-0.333-0.067-0.667-0.067-1l6.133-0.067c0.067 0.333 0 0.667 0 1zM16.933 20.733h-2.467l1.267-1.267 1.2 1.267zM17.8 16.133h-4.267l-0.067-0.067c-0.267-0.267-0.467-0.533-0.6-0.867h5.667c-0.2 0.267-0.4 0.6-0.733 0.933v0zM18.733 14.267l-6.133 0.067c-0.067-0.333 0-0.667 0-1l6.067-0.067c0.067 0.333 0.133 0.667 0.067 1v0z"></path>
</svg>
