<svg viewBox="0 0 32 32">
  <title>img-segredos</title>
  <style>
    :host {
      --stroke-width: 2;
    }

    :host {
      font-size: 24px;
      stroke: inherit;
    }

    :host path {
      stroke-width: var(--stroke-width);
      fill: currentColor;
      stroke-linecap: round;
      stroke-linejoin: round;
    }

    :host(.ion-color) path {
      --stroke: var(--ion-color-base) !important;
    }

    :host([tp-size='sm']) {      font-size: 16px;
    }

    :host([tp-size='md']) {      font-size: 32px;
    }

    :host([tp-size='lg']) {      font-size: 48px;
    }
  </style>
  <path d="M20.712 17.556c-0.256 0-0.469 0.212-0.469 0.469v0 10.406c0 1.419-1.15 2.569-2.569 2.569h-13.1c-1.419 0-2.563-1.15-2.569-2.569v-24.863c0.006-1.419 1.156-2.569 2.569-2.569h13.094c1.419 0 2.569 1.15 2.569 2.569v8.5c0 0.256 0.212 0.469 0.469 0.469s0.469-0.213 0.469-0.469v0-8.5c0-1.938-1.569-3.506-3.506-3.506h-13.094c-1.938 0-3.506 1.569-3.506 3.506v24.863c0 1.938 1.569 3.506 3.506 3.506h13.094c1.938 0 3.5-1.569 3.506-3.506v-10.406c0-0.262-0.206-0.469-0.462-0.469z"></path>
  <path d="M12.894 15.162c0.481-0.419 0.756-1.019 0.756-1.656 0-1.213-0.988-2.2-2.2-2.2s-2.2 0.988-2.2 2.2c0 0.637 0.275 1.238 0.756 1.656l-0.456 2.419c-0.025 0.125 0.006 0.25 0.088 0.35 0.081 0.094 0.2 0.15 0.325 0.15h2.975c0.125 0 0.244-0.056 0.325-0.15 0.081-0.1 0.113-0.225 0.088-0.344l-0.456-2.425zM10.887 15.063c0.031-0.169-0.037-0.338-0.181-0.431-0.381-0.256-0.613-0.675-0.613-1.125 0-0.75 0.606-1.356 1.356-1.356s1.356 0.606 1.356 1.356c0 0.45-0.225 0.875-0.613 1.125-0.144 0.094-0.213 0.262-0.181 0.431l0.406 2.175h-1.95l0.419-2.175z"></path>
  <path d="M15.431 15.887c0.006 0.006 0.019 0.006 0.031 0.012l2.025 0.875c0.119 0.050 0.25 0.050 0.369 0.006l1.219-0.481 1.219 0.481c0.113 0.044 0.238 0.044 0.35 0l1.219-0.481 1.219 0.481c0.113 0.044 0.238 0.044 0.35 0l0.881-0.35c0.631 1.375 2.006 2.269 3.55 2.269 2.156 0 3.913-1.756 3.913-3.912s-1.756-3.912-3.913-3.912c-1.613 0-3.031 0.963-3.625 2.431h-8.181c-0.756 0-1.369 0.613-1.369 1.369 0 0.512 0.287 0.981 0.744 1.213zM16.056 14.262h8.519c0.212 0 0.4-0.137 0.462-0.338 0.381-1.25 1.519-2.094 2.825-2.094 1.631 0 2.956 1.325 2.956 2.956s-1.325 2.956-2.956 2.956c-1.3 0-2.431-0.831-2.819-2.075-0.038-0.125-0.131-0.231-0.25-0.287s-0.256-0.063-0.381-0.012l-1.156 0.456-1.219-0.481c-0.113-0.044-0.238-0.044-0.35 0l-1.219 0.481-1.219-0.481c-0.113-0.044-0.238-0.044-0.35 0l-1.206 0.475-1.825-0.787c-0.131-0.069-0.213-0.206-0.213-0.356-0.006-0.225 0.175-0.412 0.4-0.412z"></path>
  <path d="M28.631 16.038c0.688 0 1.25-0.563 1.25-1.25 0-0.694-0.563-1.25-1.25-1.25s-1.25 0.563-1.25 1.25c-0.006 0.688 0.556 1.25 1.25 1.25zM28.631 14.494c0.163 0 0.288 0.131 0.288 0.287s-0.131 0.287-0.288 0.287-0.288-0.131-0.288-0.287 0.125-0.287 0.288-0.287z"></path>
  <path d="M18.837 17.556c-0.256 0-0.469 0.212-0.469 0.469v8.094c0 0.387-0.313 0.7-0.7 0.7h-3.119c-0.019 0-0.031 0-0.050 0h-9.919c-0.388 0-0.7-0.313-0.7-0.694v-15.688h-0.938v15.681c0 0.9 0.731 1.631 1.638 1.631h13.094c0.9 0 1.631-0.731 1.631-1.637v-8.088c0-0.262-0.206-0.469-0.469-0.469z"></path>
  <path d="M18.837 12.55c-0.256 0-0.469-0.213-0.469-0.469v-8.281c0-0.388-0.313-0.7-0.7-0.7h-3.119c-0.019 0-0.031 0-0.050 0h-9.919c-0.388 0-0.7 0.313-0.7 0.694v15.681h-0.938v-15.675c0-0.9 0.731-1.631 1.638-1.631h13.094c0.9 0 1.631 0.731 1.631 1.637v8.281c0 0.25-0.206 0.463-0.469 0.463z"></path>
  <path d="M12.213 29.344c0 0.601-0.487 1.087-1.088 1.087s-1.088-0.487-1.088-1.087c0-0.601 0.487-1.087 1.088-1.087s1.088 0.487 1.088 1.087z"></path>
</svg>
