<svg viewBox="0 0 32 32">
  <title>img-assimilacao</title>
  <style>
    :host {
      --stroke-width: 2;
    }

    :host {
      font-size: 24px;
      stroke: inherit;
    }

    :host path {
      stroke-width: var(--stroke-width);
      fill: currentColor;
      stroke-linecap: round;
      stroke-linejoin: round;
    }

    :host(.ion-color) path {
      --stroke: var(--ion-color-base) !important;
    }

    :host([tp-size='sm']) {      font-size: 16px;
    }

    :host([tp-size='md']) {      font-size: 32px;
    }

    :host([tp-size='lg']) {      font-size: 48px;
    }
  </style>
  <path d="M17.367 9.379c0 0 0.001 0 0.001 0 0.166 0 0.314-0.076 0.411-0.195l0.001-0.001 2.464-2.92c0.079-0.094 0.127-0.216 0.127-0.35 0-0.004-0-0.007-0-0.011v0.001c0-0.002 0-0.005 0-0.008 0-0.080-0.020-0.155-0.054-0.221l0.001 0.003c-0.088-0.183-0.272-0.308-0.484-0.311h-0.668v-4.825c0-0.001 0-0.002 0-0.003 0-0.297-0.241-0.537-0.537-0.537-0.001 0-0.002 0-0.003 0h-2.523c-0.001 0-0.002 0-0.003 0-0.297 0-0.537 0.241-0.537 0.537 0 0.001 0 0.002 0 0.003v-0 4.847h-0.665c-0.003-0-0.007-0-0.010-0-0.212 0-0.394 0.126-0.476 0.308l-0.001 0.003c-0.032 0.067-0.051 0.146-0.051 0.23 0 0.133 0.047 0.254 0.126 0.349l-0.001-0.001 2.464 2.92c0.105 0.113 0.254 0.183 0.419 0.183h0zM16.065 6.459h0.044c0.001 0 0.002 0 0.003 0 0.297 0 0.537-0.241 0.537-0.537 0-0.001 0-0.002 0-0.003v0-4.84h1.445v4.847c0 0.001 0 0.002 0 0.003 0 0.297 0.241 0.537 0.537 0.537 0.001 0 0.002 0 0.003 0h0.043l-1.302 1.553z"></path>
  <path d="M27.887 10.252c-0.513-1.752-1.375-3.265-2.513-4.524l0.009 0.010c-1.146-1.235-2.577-2.189-4.189-2.758l-0.073-0.022v1.243c1.346 0.529 2.489 1.319 3.412 2.315l0.005 0.006c1.97 2.144 2.983 5.372 2.706 8.631-0.217 2.563-1.979 6.061-5.409 8.106-1.040 0.624-1.727 1.744-1.73 3.025v4.642h-6.4v-6.071c0-0.002 0-0.005 0-0.007 0-0.17-0.074-0.323-0.192-0.427l-0.001-0c-0.099-0.092-0.232-0.148-0.377-0.148-0.026 0-0.051 0.002-0.076 0.005l0.003-0-4.909 0.525c-0.029 0.003-0.063 0.005-0.098 0.005-0.231 0-0.443-0.084-0.606-0.224l0.001 0.001c-0.191-0.163-0.317-0.396-0.338-0.658l-0-0.003-0.121-1.628-0.081-1.19-0.084-1.146c-0.059-1.003-1.317-1.243-1.991-1.373-0.013-0.001-0.029-0.002-0.045-0.002s-0.032 0.001-0.047 0.002l0.002-0 0.022-0.047c0.020-0.027 0.037-0.058 0.049-0.091l0.001-0.003 1.991-3.498c0.055-0.089 0.088-0.197 0.088-0.313 0-0.011-0-0.023-0.001-0.034l0 0.002c-0.048-0.374-0.075-0.807-0.075-1.246 0-2.622 0.971-5.016 2.574-6.844l-0.010 0.012c1.023-1.125 2.306-1.996 3.756-2.518l0.065-0.020v-1.221c-1.869 0.586-3.455 1.623-4.686 2.986l-0.008 0.009c-1.774 2.018-2.856 4.682-2.856 7.598 0 0.414 0.022 0.823 0.064 1.225l-0.004-0.050-1.883 3.303c-0.16 0.21-0.257 0.476-0.257 0.764 0 0.334 0.13 0.638 0.342 0.864l-0.001-0.001c0.189 0.159 0.433 0.259 0.7 0.267l0.002 0c0.391 0.041 0.747 0.158 1.064 0.336l-0.014-0.007 0.277 3.927c0.079 1.099 0.989 1.96 2.101 1.96 0.081 0 0.16-0.005 0.238-0.013l-0.010 0.001 4.263-0.46v5.406c-0.001 0.013-0.001 0.028-0.001 0.044s0 0.030 0.001 0.046l-0-0.002v0.541c0 0.323 0.261 0.584 0.584 0.584v0h7.54c0.323 0 0.584-0.262 0.584-0.584v0-5.223c0.006-0.857 0.466-1.605 1.151-2.017l0.011-0.006c1.793-1.082 3.257-2.537 4.318-4.266l0.032-0.055c0.844-1.337 1.418-2.927 1.605-4.632l0.004-0.050c0.036-0.371 0.056-0.801 0.056-1.237 0-1.344-0.195-2.642-0.559-3.867l0.024 0.096z"></path>
</svg>
