<svg viewBox="0 0 32 32">
  <title>img-prova-integra</title>
  <style>
    :host {
      --stroke-width: 2;
    }

    :host {
      font-size: 24px;
      stroke: inherit;
    }

    :host path {
      stroke-width: var(--stroke-width);
      fill: currentColor;
      stroke-linecap: round;
      stroke-linejoin: round;
    }

    :host(.ion-color) path {
      --stroke: var(--ion-color-base) !important;
    }

    :host([tp-size='sm']) {      font-size: 16px;
    }

    :host([tp-size='md']) {      font-size: 32px;
    }

    :host([tp-size='lg']) {      font-size: 48px;
    }
  </style>
  <path d="M6.366 22.58h7.289v0.989h-7.289v-0.989z"></path>
  <path d="M6.366 16.714h6.78v0.989h-6.78v-0.989z"></path>
  <path d="M6.366 25.549h8.446v0.989h-8.446v-0.989z"></path>
  <path d="M6.366 13.749h8.446v0.989h-8.446v-0.989z"></path>
  <path d="M6.366 19.683h5.514v0.989h-5.514v-0.989z"></path>
  <path d="M7.343 7.969l-3.2 3.257h3.2zM7.286 11.169h-2.997l2.997-3.060z"></path>
  <path d="M15.509 0.066l0.014-0.066h-0.069l-0.003 0.009h-2.346l0.014-0.009h-0.1l-0.1 0.066h2.589z"></path>
  <path d="M22.451 26.651c-3.907-0.002-7.074-3.17-7.074-7.077s3.169-7.077 7.077-7.077 7.077 3.169 7.077 7.077v0c-0.005 3.908-3.172 7.074-7.080 7.077h-0zM22.451 13.731c-3.226 0.002-5.84 2.617-5.84 5.843 0 3.227 2.616 5.843 5.843 5.843s5.843-2.616 5.843-5.843v0c-0.005-3.226-2.62-5.84-5.845-5.843h-0z"></path>
  <path d="M22.454 12.617c-3.842 0-6.957 3.115-6.957 6.957s3.115 6.957 6.957 6.957c3.842 0 6.957-3.115 6.957-6.957v0c-0.002-3.842-3.115-6.956-6.957-6.957h-0zM22.454 25.54c-3.291-0.005-5.957-2.674-5.957-5.966 0-3.295 2.671-5.966 5.966-5.966s5.966 2.671 5.966 5.966v0c0 0 0 0 0 0 0 3.295-2.671 5.966-5.966 5.966-0.003 0-0.006 0-0.009 0h0z"></path>
  <path d="M18.477 20.191c-0.341 0-0.617-0.276-0.617-0.617s0.276-0.617 0.617-0.617v0h3.357v-3.357c0.023-0.324 0.291-0.578 0.619-0.578s0.596 0.254 0.618 0.576l0 0.002v3.974c-0.002 0.341-0.279 0.617-0.62 0.617 0 0 0 0 0 0v0z"></path>
  <path d="M22.454 15.103c-0.001 0-0.002 0-0.003 0-0.273 0-0.494 0.221-0.494 0.494 0 0.001 0 0.002 0 0.003v-0 3.477h-3.48c-0.275 0-0.497 0.223-0.497 0.497s0.223 0.497 0.497 0.497v0h3.977c0 0 0 0 0 0 0.273 0 0.494-0.221 0.494-0.494 0-0.001 0-0.002 0-0.003v0-3.974c0-0.001 0-0.002 0-0.003 0-0.273-0.221-0.494-0.494-0.494 0 0 0 0 0 0v0z"></path>
  <path d="M21.809 28.886v2h-18.294v-18.6h4.314c0.294-0.002 0.531-0.24 0.531-0.534 0 0 0 0 0 0v0-4.414h13.449v3.249h0.969v-4c-0.089-0.165-0.258-0.278-0.453-0.286l-0.001-0h-6.8v0.066h-2.603l0.1-0.066h-5.186c-0.151 0.002-0.288 0.063-0.389 0.16l0-0-4.857 4.934c-0.092 0.106-0.151 0.242-0.16 0.393l-0 0.002v19.64c-0 0.003-0 0.006-0 0.009 0 0.29 0.233 0.525 0.523 0.529h0l19.314 0.026c0.244-0.002 0.448-0.167 0.511-0.391l0.001-0.004v-2.711zM7.343 7.969v3.257h-3.2z"></path>
</svg>
