<svg viewBox="0 0 32 32">
  <title>img-covid-19</title>
  <style>
    :host {
      --stroke-width: 2;
    }

    :host {
      font-size: 24px;
      stroke: inherit;
    }

    :host path {
      stroke-width: var(--stroke-width);
      fill: currentColor;
      stroke-linecap: round;
      stroke-linejoin: round;
    }

    :host(.ion-color) path {
      --stroke: var(--ion-color-base) !important;
    }

    :host([tp-size='sm']) {      font-size: 16px;
    }

    :host([tp-size='md']) {      font-size: 32px;
    }

    :host([tp-size='lg']) {      font-size: 48px;
    }
  </style>
  <path d="M16 32c-0.916 0.001-1.731-0.583-2.024-1.452s0.002-1.827 0.732-2.381l-0.16-2.676c-0.699-0.105-1.383-0.289-2.040-0.549l-1.476 2.24c0.354 0.845 0.13 1.821-0.557 2.426s-1.684 0.704-2.477 0.246c-0.793-0.458-1.205-1.371-1.024-2.269s0.915-1.58 1.824-1.695l1.203-2.397c-0.553-0.442-1.055-0.944-1.497-1.497l-2.395 1.203c-0.115 0.909-0.797 1.643-1.694 1.824s-1.811-0.231-2.269-1.024c-0.458-0.793-0.359-1.79 0.246-2.477s1.582-0.912 2.426-0.557l2.24-1.475c-0.26-0.657-0.445-1.341-0.55-2.040l-2.676-0.16c-0.554 0.728-1.512 1.022-2.379 0.729s-1.451-1.106-1.451-2.021c0-0.915 0.584-1.729 1.451-2.021s1.825 0.001 2.379 0.729l2.676-0.16c0.105-0.699 0.289-1.383 0.549-2.040l-2.24-1.476c-0.845 0.354-1.822 0.129-2.427-0.559s-0.703-1.686-0.243-2.478c0.46-0.793 1.374-1.203 2.272-1.020s1.578 0.919 1.691 1.828l2.397 1.202c0.442-0.553 0.944-1.055 1.497-1.497l-1.202-2.397c-0.909-0.115-1.643-0.797-1.824-1.694s0.231-1.811 1.024-2.269c0.793-0.458 1.79-0.359 2.477 0.246s0.912 1.582 0.557 2.426l1.476 2.24c0.657-0.26 1.341-0.445 2.039-0.55l0.16-2.676c-0.728-0.554-1.022-1.512-0.729-2.379s1.106-1.451 2.021-1.451c0.915 0 1.729 0.584 2.021 1.451s-0.001 1.825-0.729 2.379l0.16 2.676c0.699 0.105 1.383 0.289 2.040 0.549l1.476-2.24c-0.354-0.845-0.13-1.821 0.557-2.426s1.684-0.704 2.477-0.246c0.793 0.458 1.205 1.371 1.024 2.269s-0.915 1.58-1.824 1.694l-1.203 2.397c0.553 0.442 1.055 0.944 1.497 1.497l2.392-1.201c0.115-0.909 0.796-1.643 1.694-1.824s1.811 0.231 2.269 1.024c0.458 0.793 0.359 1.79-0.246 2.477s-1.582 0.912-2.426 0.557l-2.24 1.476c0.26 0.657 0.445 1.341 0.55 2.040l2.676 0.16c0.555-0.728 1.512-1.022 2.379-0.729s1.451 1.106 1.451 2.021c0 0.915-0.584 1.729-1.451 2.021s-1.825-0.001-2.379-0.729l-2.676 0.16c-0.105 0.699-0.289 1.383-0.549 2.040l2.24 1.475c0.845-0.354 1.821-0.13 2.426 0.557s0.704 1.684 0.246 2.477c-0.458 0.793-1.371 1.205-2.269 1.024s-1.58-0.915-1.694-1.824l-2.397-1.202c-0.442 0.553-0.944 1.055-1.497 1.497l1.2 2.393c0.909 0.115 1.643 0.797 1.824 1.695s-0.231 1.811-1.024 2.269c-0.793 0.458-1.79 0.359-2.477-0.246s-0.912-1.582-0.557-2.426l-1.476-2.24c-0.657 0.26-1.341 0.445-2.039 0.55l-0.16 2.676c0.728 0.554 1.021 1.511 0.729 2.378s-1.104 1.451-2.019 1.452zM12.31 23.995c0.076 0 0.151 0.016 0.221 0.048 0.817 0.37 1.689 0.606 2.581 0.697 0.26 0.027 0.461 0.238 0.477 0.499l0.202 3.429c0.012 0.21-0.099 0.407-0.286 0.505-0.435 0.228-0.658 0.723-0.541 1.2s0.545 0.812 1.036 0.812c0.491 0 0.918-0.335 1.036-0.812s-0.106-0.972-0.541-1.2c-0.186-0.097-0.298-0.295-0.286-0.505l0.202-3.429c0.016-0.26 0.217-0.471 0.477-0.499 0.892-0.091 1.764-0.326 2.581-0.697 0.239-0.109 0.522-0.028 0.667 0.192l1.893 2.875c0.116 0.177 0.116 0.406 0 0.583-0.215 0.334-0.223 0.761-0.022 1.103 0.219 0.372 0.639 0.576 1.066 0.518s0.778-0.366 0.891-0.782c0.085-0.328 0.010-0.677-0.202-0.94s-0.537-0.411-0.876-0.398c-0.21 0.009-0.407-0.106-0.501-0.294l-1.541-3.072c-0.117-0.234-0.048-0.518 0.164-0.671 0.729-0.527 1.369-1.168 1.896-1.897 0.153-0.212 0.437-0.281 0.671-0.164l3.072 1.542c0.188 0.094 0.303 0.291 0.294 0.501-0.020 0.49 0.297 0.931 0.768 1.068s0.975-0.065 1.221-0.49c0.294-0.51 0.121-1.162-0.387-1.459-0.342-0.2-0.768-0.191-1.101 0.023-0.177 0.116-0.406 0.116-0.583 0l-2.875-1.893c-0.22-0.144-0.302-0.428-0.193-0.667 0.371-0.817 0.606-1.688 0.697-2.58 0.027-0.26 0.238-0.462 0.499-0.477l3.429-0.203c0.21-0.012 0.407 0.099 0.505 0.286 0.228 0.435 0.723 0.658 1.2 0.541s0.812-0.545 0.812-1.036c0-0.491-0.335-0.918-0.812-1.036s-0.972 0.106-1.2 0.541c-0.097 0.186-0.295 0.298-0.505 0.286l-3.429-0.203c-0.261-0.015-0.472-0.217-0.499-0.477-0.091-0.892-0.326-1.764-0.697-2.58-0.109-0.239-0.027-0.523 0.193-0.667l2.875-1.893c0.177-0.116 0.406-0.116 0.583 0 0.334 0.214 0.76 0.223 1.102 0.022 0.372-0.218 0.577-0.638 0.519-1.066s-0.366-0.779-0.782-0.891c-0.328-0.087-0.677-0.012-0.941 0.2s-0.411 0.538-0.397 0.877c0.009 0.21-0.106 0.406-0.294 0.501l-3.072 1.542c-0.234 0.117-0.518 0.047-0.671-0.164-0.527-0.729-1.168-1.369-1.896-1.897-0.212-0.153-0.281-0.437-0.164-0.671l1.541-3.072c0.094-0.188 0.291-0.303 0.501-0.294 0.491 0.021 0.934-0.296 1.071-0.768s-0.066-0.977-0.493-1.222c-0.51-0.294-1.162-0.122-1.459 0.387-0.2 0.342-0.191 0.767 0.023 1.101 0.116 0.177 0.116 0.406 0 0.583l-1.893 2.875c-0.145 0.22-0.427 0.301-0.667 0.192-0.817-0.371-1.688-0.606-2.581-0.697-0.26-0.027-0.462-0.238-0.477-0.499l-0.202-3.429c-0.012-0.21 0.099-0.407 0.286-0.505 0.435-0.228 0.658-0.723 0.541-1.2s-0.545-0.812-1.036-0.812c-0.491 0-0.918 0.335-1.036 0.812s0.106 0.972 0.541 1.2c0.186 0.097 0.298 0.295 0.286 0.505l-0.202 3.429c-0.016 0.261-0.218 0.472-0.477 0.499-0.892 0.091-1.763 0.326-2.58 0.697-0.239 0.109-0.522 0.028-0.667-0.192l-1.893-2.875c-0.116-0.177-0.116-0.406 0-0.583 0.215-0.334 0.223-0.761 0.022-1.103-0.218-0.372-0.638-0.576-1.066-0.519s-0.778 0.365-0.891 0.782c-0.087 0.328-0.012 0.677 0.2 0.942s0.538 0.412 0.877 0.397c0.21-0.009 0.406 0.106 0.501 0.294l1.541 3.072c0.117 0.234 0.048 0.518-0.164 0.671-0.729 0.527-1.369 1.168-1.896 1.897-0.153 0.212-0.437 0.281-0.671 0.164l-3.072-1.542c-0.188-0.094-0.303-0.29-0.294-0.501 0.022-0.492-0.295-0.936-0.768-1.073s-0.979 0.067-1.223 0.495c-0.294 0.51-0.121 1.162 0.387 1.459 0.342 0.2 0.767 0.191 1.101-0.023 0.177-0.116 0.406-0.116 0.583 0l2.875 1.893c0.22 0.144 0.302 0.428 0.193 0.667-0.371 0.817-0.606 1.688-0.697 2.58-0.027 0.26-0.239 0.461-0.499 0.477l-3.429 0.203c-0.21 0.013-0.408-0.099-0.505-0.286-0.228-0.435-0.723-0.658-1.2-0.541s-0.812 0.545-0.812 1.036c0 0.491 0.335 0.918 0.812 1.036s0.972-0.106 1.2-0.541c0.097-0.186 0.295-0.298 0.505-0.286l3.429 0.203c0.261 0.015 0.472 0.217 0.499 0.477 0.091 0.892 0.326 1.764 0.697 2.58 0.109 0.239 0.027 0.523-0.193 0.667l-2.875 1.893c-0.177 0.116-0.406 0.116-0.583 0-0.334-0.215-0.76-0.224-1.102-0.022-0.372 0.218-0.577 0.638-0.519 1.066s0.366 0.779 0.782 0.891c0.328 0.087 0.677 0.012 0.941-0.2s0.411-0.538 0.397-0.877c-0.009-0.21 0.106-0.407 0.294-0.501l3.072-1.542c0.234-0.117 0.518-0.047 0.671 0.164 0.527 0.729 1.168 1.369 1.896 1.897 0.212 0.153 0.281 0.437 0.164 0.671l-1.541 3.072c-0.094 0.188-0.29 0.303-0.501 0.294-0.338-0.014-0.663 0.134-0.876 0.398s-0.287 0.613-0.202 0.94c0.113 0.416 0.464 0.725 0.892 0.782s0.848-0.148 1.066-0.52c0.2-0.342 0.191-0.767-0.023-1.101-0.116-0.177-0.116-0.406 0-0.583l1.893-2.875c0.1-0.149 0.268-0.238 0.448-0.236z"></path>
</svg>
