<svg viewBox="0 0 24 24">
  <title>alert-triangle</title>
  <style>
    :host {
      --stroke-width: 2;
    }

    :host {
      font-size: 24px;
      stroke: inherit;
    }

    :host path {
      stroke: currentColor;
      stroke-width: var(--stroke-width);
      fill: none;
      stroke-linecap: round;
      stroke-linejoin: round;
    }

    :host(.ion-color) path {
      --stroke: var(--ion-color-base) !important;
    }

    :host([tp-size='sm']) {      font-size: 16px;
    }

    :host([tp-size='md']) {      font-size: 32px;
    }

    :host([tp-size='lg']) {      font-size: 48px;
    }
  </style>
  <path d="M12 9V13M12 17H12.01M10.2898 3.86001L1.81978 18C1.64514 18.3024 1.55274 18.6453 1.55177 18.9945C1.55079 19.3437 1.64127 19.6871 1.8142 19.9905C1.98714 20.2939 2.2365 20.5468 2.53748 20.7239C2.83847 20.901 3.18058 20.9962 3.52978 21H20.4698C20.819 20.9962 21.1611 20.901 21.4621 20.7239C21.7631 20.5468 22.0124 20.2939 22.1854 19.9905C22.3583 19.6871 22.4488 19.3437 22.4478 18.9945C22.4468 18.6453 22.3544 18.3024 22.1798 18L13.7098 3.86001C13.5315 3.56611 13.2805 3.32313 12.981 3.15449C12.6814 2.98585 12.3435 2.89726 11.9998 2.89726C11.656 2.89726 11.3181 2.98585 11.0186 3.15449C10.7191 3.32313 10.468 3.56611 10.2898 3.86001Z" />
</svg>
