<svg viewBox="0 0 80 80">
  <title>ilustracao-treino</title>
  <style>
    :host {
      --stroke-width: 2;
    }

    :host {
      font-size: 24px;
      stroke: inherit;
    }

    :host path {
      stroke: currentColor;
      stroke-width: var(--stroke-width);
      fill: none;
      stroke-linecap: round;
      stroke-linejoin: round;
    }

    :host(.ion-color) path {
      --stroke: var(--ion-color-base) !important;
    }

    :host([tp-size='sm']) {      font-size: 16px;
    }

    :host([tp-size='md']) {      font-size: 32px;
    }

    :host([tp-size='lg']) {      font-size: 48px;
    }
  </style>
  <path d="M46.0364 9.06277L68.5622 13.9941L75 24.0964L67.8866 57.3189C67.8289 57.5927 67.7184 57.8522 67.5613 58.0826C67.4042 58.3129 67.2036 58.5097 66.9711 58.6614C66.7386 58.813 66.4786 58.9166 66.2064 58.9663C65.9342 59.016 65.6551 59.0107 65.3849 58.9508L36.6587 52.6758C36.1149 52.5578 35.6394 52.2261 35.3371 51.7537C35.0348 51.2813 34.9301 50.7066 35.0462 50.1561L43.4638 10.6946C43.5224 10.4141 43.6362 10.1482 43.7984 9.91312C43.9606 9.678 44.1679 9.47838 44.408 9.3261C44.6481 9.17382 44.9161 9.07197 45.1959 9.02674C45.4757 8.98151 45.7614 8.99376 46.0364 9.06277V9.06277Z"/>
  <path d="M72 25L66 23.58L67.2832 17"/>
  <path d="M32 65.8454L19.5666 69.899C19.311 69.983 19.0413 70.0151 18.7734 69.9934C18.5054 69.9718 18.2445 69.8969 18.0052 69.7729C17.7659 69.6489 17.5531 69.4781 17.3789 69.2706C17.2047 69.0631 17.0724 68.8229 16.9899 68.5636L5.09958 31.073C5.01673 30.8138 4.98511 30.5404 5.00648 30.2687C5.02785 29.9971 5.10165 29.7325 5.22399 29.4899C5.34633 29.2472 5.51471 29.0312 5.71937 28.8546C5.92402 28.6779 6.16097 28.5442 6.41674 28.4604L13.9854 26"/>
  <path d="M37 61.1892L23.7888 62.9816C23.2379 63.0545 22.6801 62.9091 22.2375 62.5775C21.795 62.246 21.5038 61.7553 21.4276 61.2125L16.0202 22.4216C15.982 22.1525 15.9981 21.8785 16.0678 21.6155C16.1374 21.3526 16.2592 21.1059 16.426 20.8895C16.5928 20.6732 16.8013 20.4916 17.0397 20.3551C17.278 20.2185 17.5415 20.1297 17.8148 20.0939L25.8549 19"/>
  <path d="M43 58L29.9584 57.5084C29.6908 57.4978 29.4277 57.4337 29.1845 57.3197C28.9412 57.2057 28.7227 57.0439 28.5409 56.8438C28.3592 56.6437 28.2178 56.4091 28.1253 56.1535C28.0328 55.8978 27.9909 55.6262 28.0017 55.354L29.475 15.9916C29.496 15.4439 29.7294 14.9271 30.1242 14.5541C30.519 14.181 31.0428 13.9823 31.5813 14.0012L39.5007 14.3057"/>
  <path d="M61 41.9713L60.8056 42.5478C60.3963 43.7678 59.6307 44.84 58.6054 45.6295C57.5801 46.419 56.3412 46.89 55.0453 46.983C53.7495 47.076 52.4551 46.7868 51.3254 46.152C50.1957 45.5171 49.2814 44.5654 48.6985 43.4166C48.1155 42.2679 47.8899 40.9738 48.0502 39.6982C48.2104 38.4226 48.7495 37.2229 49.599 36.2503C50.4484 35.2777 51.5702 34.5761 52.8226 34.2342C54.075 33.8923 55.4018 33.9254 56.6351 34.3294C57.5138 34.6117 58.3207 35.0782 59.0004 35.6972"/>
  <path d="M63 38L54.3142 42L53 39.611"/>
</svg>
