<svg viewBox="0 0 24 24">
  <title>moon</title>
  <style>
    :host {
      --stroke-width: 2;
    }

    :host {
      font-size: 24px;
      stroke: inherit;
    }

    :host path {
      stroke: currentColor;
      stroke-width: var(--stroke-width);
      fill: none;
      stroke-linecap: round;
      stroke-linejoin: round;
    }

    :host(.ion-color) path {
      --stroke: var(--ion-color-base) !important;
    }

    :host([tp-size='sm']) {
      font-size: 16px;
    }

    :host([tp-size='md']) {
      font-size: 32px;
    }

    :host([tp-size='lg']) {
      font-size: 48px;
    }
  </style>
  <path d="M19.1583 17.4668C18.1127 18.8192 16.7035 19.8458 15.0957 20.4265C13.4879 21.0073 11.748 21.1181 10.0795 20.7461C8.41104 20.3741 6.88302 19.5345 5.67425 18.3258C4.46548 17.117 3.62596 15.589 3.25393 13.9205C2.8819 12.252 2.99274 10.5121 3.57348 8.9043C4.15423 7.29651 5.18085 5.88737 6.53324 4.84175C7.88562 3.79614 9.50782 3.15731 11.21 3C10.2134 4.34827 9.73387 6.00945 9.85856 7.68141C9.98324 9.35338 10.7039 10.9251 11.8894 12.1106C13.075 13.2961 14.6466 14.0168 16.3186 14.1415C17.9906 14.2662 19.6518 13.7866 21 12.79C21.0008 14.486 20.1736 16.1536 19.1583 17.4668Z"/>
</svg>
