<svg viewBox="0 0 24 24">
  <title>rate-bom</title>
  <style>
    :host {
      --stroke-width: 2;
    }

    :host {
      font-size: 24px;
      stroke: inherit;
    }

    :host path {
      stroke: none;
      stroke-width: var(--stroke-width);
      fill: currentColor;
      stroke-linecap: round;
      stroke-linejoin: round;
    }

    :host(.ion-color) path {
      --stroke: var(--ion-color-base) !important;
    }

    :host([tp-size='sm']) {
      font-size: 16px;
    }

    :host([tp-size='md']) {
      font-size: 32px;
    }

    :host([tp-size='lg']) {
      font-size: 48px;
    }
  </style>
  <path d="M4 9C4 8.44772 3.55228 8 3 8C2.44772 8 2 8.44772 2 9H4ZM2 21C2 21.5523 2.44772 22 3 22C3.55229 22 4 21.5523 4 21H2ZM9 17H10V16H9V17ZM8 21C8 21.5523 8.44772 22 9 22C9.55228 22 10 21.5523 10 21H8ZM13 14H14V13H13V14ZM13 21H12V22H13V21ZM3 16C2.44772 16 2 16.4477 2 17C2 17.5523 2.44772 18 3 18V16ZM8 14L7.05132 13.6838L6.61257 15H8V14ZM10.9487 8.31623C11.1233 7.79228 10.8402 7.22596 10.3162 7.05132C9.79228 6.87667 9.22596 7.15983 9.05132 7.68377L10.9487 8.31623ZM15 12C15.5523 12 16 11.5523 16 11C16 10.4477 15.5523 10 15 10V12ZM12 11L11.5528 11.8944L11.7639 12H12V11ZM10.4472 9.10557C9.95324 8.85858 9.35256 9.05881 9.10557 9.55279C8.85858 10.0468 9.05881 10.6474 9.55279 10.8944L10.4472 9.10557ZM15 22C15.5523 22 16 21.5523 16 21C16 20.4477 15.5523 20 15 20V22ZM17.2929 7.29289C16.9024 7.68342 16.9024 8.31658 17.2929 8.70711C17.6834 9.09763 18.3166 9.09763 18.7071 8.70711L17.2929 7.29289ZM19.7071 7.70711C20.0976 7.31658 20.0976 6.68342 19.7071 6.29289C19.3166 5.90237 18.6834 5.90237 18.2929 6.29289L19.7071 7.70711ZM19 10C18.4477 10 18 10.4477 18 11C18 11.5523 18.4477 12 19 12V10ZM20 12C20.5523 12 21 11.5523 21 11C21 10.4477 20.5523 10 20 10V12ZM18.7071 13.2929C18.3166 12.9024 17.6834 12.9024 17.2929 13.2929C16.9024 13.6834 16.9024 14.3166 17.2929 14.7071L18.7071 13.2929ZM18.2929 15.7071C18.6834 16.0976 19.3166 16.0976 19.7071 15.7071C20.0976 15.3166 20.0976 14.6834 19.7071 14.2929L18.2929 15.7071ZM12 5.5C12 6.32843 11.3284 7 10.5 7V9C12.433 9 14 7.433 14 5.5H12ZM10.5 7C9.67157 7 9 6.32843 9 5.5H7C7 7.433 8.567 9 10.5 9V7ZM9 5.5C9 4.67157 9.67157 4 10.5 4V2C8.567 2 7 3.567 7 5.5H9ZM10.5 4C11.3284 4 12 4.67157 12 5.5H14C14 3.567 12.433 2 10.5 2V4ZM2 9L2 21H4L4 9H2ZM8 17V21H10V17H8ZM12 14L12 21H14L14 14H12ZM9 16H3V18H9V16ZM13 13H8V15H13V13ZM8.94868 14.3162L10.9487 8.31623L9.05132 7.68377L7.05132 13.6838L8.94868 14.3162ZM15 10H12V12H15V10ZM12.4472 10.1056L10.4472 9.10557L9.55279 10.8944L11.5528 11.8944L12.4472 10.1056ZM13 22H15V20H13V22ZM18.7071 8.70711L19.7071 7.70711L18.2929 6.29289L17.2929 7.29289L18.7071 8.70711ZM19 12H20V10H19V12ZM17.2929 14.7071L18.2929 15.7071L19.7071 14.2929L18.7071 13.2929L17.2929 14.7071Z"/>
</svg>
