<svg viewBox="0 0 24 24">
  <title>type-square</title>
  <style>
    :host {
      --stroke-width: 2;
    }

    :host {
      font-size: 24px;
      stroke: inherit;
    }

    :host path {
      stroke: none;
      stroke-width: var(--stroke-width);
      fill: currentColor;
      stroke-linecap: round;
      stroke-linejoin: round;
    }

    :host(.ion-color) path {
      --stroke: var(--ion-color-base) !important;
    }

    :host([tp-size='sm']) {
      font-size: 16px;
    }

    :host([tp-size='md']) {
      font-size: 32px;
    }

    :host([tp-size='lg']) {
      font-size: 48px;
    }
  </style>
  <path d="M6 10c0 0.552 0.448 1 1 1s1-0.448 1-1h-2zM7 7v-1c-0.552 0-1 0.448-1 1h1zM17 7h1c0-0.552-0.448-1-1-1v1zM16 10c0 0.552 0.448 1 1 1s1-0.448 1-1h-2zM9 16c-0.552 0-1 0.448-1 1s0.448 1 1 1v-2zM15 18c0.552 0 1-0.448 1-1s-0.448-1-1-1v2zM13 7c0-0.552-0.448-1-1-1s-1 0.448-1 1h2zM11 17c0 0.552 0.448 1 1 1s1-0.448 1-1h-2zM8 10v-3h-2v3h2zM7 8h10v-2h-10v2zM16 7v3h2v-3h-2zM9 18h6v-2h-6v2zM11 7v10h2v-10h-2zM5 4h14v-2h-14v2zM20 5v14h2v-14h-2zM19 20h-14v2h14v-2zM4 19v-14h-2v14h2zM5 20c-0.552 0-1-0.448-1-1h-2c0 1.657 1.343 3 3 3v-2zM20 19c0 0.552-0.448 1-1 1v2c1.657 0 3-1.343 3-3h-2zM19 4c0.552 0 1 0.448 1 1h2c0-1.657-1.343-3-3-3v2zM5 2c-1.657 0-3 1.343-3 3h2c0-0.552 0.448-1 1-1v-2z"></path>
</svg>
