<svg viewBox="0 0 24 24">
  <title>video-2</title>
  <style>
    :host {
      --stroke-width: 2;
    }

    :host {
      font-size: 24px;
      stroke: inherit;
    }

    :host path {
      stroke: currentColor;
      stroke-width: var(--stroke-width);
      fill: none;
      stroke-linecap: round;
      stroke-linejoin: round;
    }

    :host(.ion-color) path {
      --stroke: var(--ion-color-base) !important;
    }

    :host([tp-size='sm']) {
      font-size: 16px;
    }

    :host([tp-size='md']) {
      font-size: 32px;
    }

    :host([tp-size='lg']) {
      font-size: 48px;
    }
  </style>
  <path d="M10 11H4C2.89543 11 2 11.8954 2 13V19C2 20.1046 2.89543 21 4 21H20C21.1046 21 22 20.1046 22 19V13C22 11.8954 21.1046 11 20 11H18M10 11C10 13.2091 11.7909 15 14 15C16.2091 15 18 13.2091 18 11M10 11C10 8.79086 11.7909 7 14 7C16.2091 7 18 8.79086 18 11M9 5L8 4M14 3V2M19 5L20 4"/>
</svg>
