<svg viewBox="0 0 32 32">
  <title>img-top-temas</title>
  <style>
    :host {
      --stroke-width: 2;
    }

    :host {
      font-size: 24px;
      stroke: inherit;
    }

    :host path {
      stroke-width: var(--stroke-width);
      fill: currentColor;
      stroke-linecap: round;
      stroke-linejoin: round;
    }

    :host(.ion-color) path {
      --stroke: var(--ion-color-base) !important;
    }

    :host([tp-size='sm']) {      font-size: 16px;
    }

    :host([tp-size='md']) {      font-size: 32px;
    }

    :host([tp-size='lg']) {      font-size: 48px;
    }
  </style>
  <path d="M20.24 10.883h-14.611c-0.244 0-0.447 0.195-0.447 0.447v0 0.406c0 0.244 0.195 0.447 0.447 0.447v0h14.359z"></path>
  <path d="M20.004 12.085h-14.652c-0.065 0-0.114-0.106-0.114-0.244v-0.625c0-0.138 0.049-0.244 0.114-0.244h14.871c0 0 0.024-0.122 0.041-0.187h-15.001c-0.065 0-0.122 0.106-0.122 0.244v0.991c0 0.13 0.057 0.244 0.122 0.244h14.709z"></path>
  <path d="M5.328 20.459h22.408c0.122 0 0.219 0.097 0.219 0.219v0 0.861c0 0.122-0.097 0.219-0.219 0.219v0h-22.408c-0.114 0-0.211-0.097-0.211-0.211v0-0.877c0.008-0.122 0.097-0.211 0.211-0.211v0z"></path>
  <path d="M27.842 21.848h-22.619c-0.097 0-0.171-0.106-0.171-0.236v-1.007c0-0.13 0.073-0.236 0.171-0.236h22.619c0.097 0 0.179 0.114 0.179 0.244v0.983c0 0.138-0.081 0.252-0.179 0.252zM5.36 21.661h22.351c0.097 0 0.179-0.114 0.179-0.244v-0.609c0-0.138-0.081-0.244-0.179-0.244h-22.351c-0.097 0-0.171 0.106-0.171 0.244v0.625c0 0.114 0.073 0.227 0.171 0.227z"></path>
  <path d="M5.279 29.458h22.433c0.138 0 0.244 0.106 0.244 0.244v0.804c0 0.138-0.106 0.244-0.244 0.244h-22.433c-0.089 0-0.154-0.073-0.154-0.154v0-0.975c0-0.089 0.065-0.162 0.154-0.162z"></path>
  <path d="M27.817 30.847h-22.636c-0.073 0-0.13-0.081-0.13-0.179v-1.121c0-0.097 0.057-0.179 0.13-0.179h22.636c0.114 0 0.203 0.122 0.203 0.284v0.918c0 0.146-0.089 0.276-0.203 0.276zM5.32 30.66h22.367c0.114 0 0.203-0.122 0.203-0.284v-0.544c0-0.154-0.089-0.284-0.203-0.284h-22.367c-0.073 0-0.13 0.081-0.13 0.179v0.747c0 0.106 0.057 0.187 0.13 0.187z"></path>
  <path d="M0.707 11.517h1.137v-3.054c-0.171 0.089-0.341 0.162-0.528 0.219l-0.569 0.187-0.195-0.463 1.348-0.609c0.081-0.041 0.162-0.057 0.252-0.057h0.374v3.785h0.958v0.56h-2.778v-0.569z"></path>
  <path d="M3.582 12.175h-2.981v-0.755h1.137v-2.786c-0.122 0.049-0.268 0.106-0.39 0.146l-0.658 0.211-0.268-0.642 1.429-0.65c0.089-0.041 0.195-0.065 0.3-0.065h0.471v3.785h0.958v0.755zM0.804 11.972h2.575v-0.357h-0.95v-3.777h-0.276c-0.073 0-0.146 0.016-0.219 0.049l-1.251 0.569 0.122 0.292 0.479-0.154c0.171-0.049 0.333-0.122 0.495-0.203l0.162-0.106v3.338h-1.129l-0.008 0.349z"></path>
  <path d="M1.194 21.174h2.104v0.569h-2.948v-0.349c0-0.081 0.032-0.162 0.097-0.219l1.267-1.332c0.528-0.56 0.796-0.82 0.796-1.226 0-0.471-0.325-0.666-0.763-0.666-0.292 0.008-0.585 0.073-0.853 0.187l-0.398 0.154-0.227-0.39c0.455-0.357 1.023-0.569 1.527-0.569 0.772 0 1.421 0.479 1.421 1.251 0 0.56-0.284 0.934-1.072 1.681l-0.95 0.91z"></path>
  <path d="M3.403 21.848h-3.151v-0.447c0-0.106 0.041-0.211 0.122-0.284l1.34-1.405c0.463-0.487 0.698-0.731 0.698-1.088 0-0.471-0.365-0.569-0.666-0.569-0.276 0.008-0.552 0.073-0.812 0.187l-0.479 0.179-0.317-0.536 0.073-0.057c0.487-0.374 1.064-0.593 1.584-0.593 0.885 0 1.519 0.569 1.519 1.348 0 0.609-0.325 1.015-1.105 1.754l-0.763 0.731h1.949l0.008 0.78zM0.455 21.645h2.745v-0.365h-2.258l1.129-1.080c0.772-0.731 1.040-1.080 1.040-1.608 0-0.755-0.666-1.145-1.324-1.145-0.447 0-0.958 0.187-1.389 0.495l0.138 0.236 0.317-0.122c0.357-0.138 0.625-0.195 0.885-0.195 0.544 0 0.869 0.284 0.869 0.772 0 0.439-0.268 0.715-0.755 1.226l-1.332 1.389c-0.065 0.073-0.073 0.089-0.073 0.146v0.252z"></path>
  <path d="M0.804 29.97c0.39 0.146 0.69 0.219 1.023 0.219 0.536 0 0.861-0.26 0.861-0.763 0-0.219-0.049-0.357-0.154-0.455s-0.292-0.162-0.593-0.162h-0.439c-0.081 0-0.106-0.016-0.106-0.089v-0.455h0.682c0.122 0.008 0.236-0.049 0.3-0.154 0.106-0.146 0.162-0.325 0.162-0.512 0-0.471-0.3-0.658-0.731-0.658-0.292 0.008-0.577 0.073-0.845 0.179l-0.463 0.162-0.219-0.39c0.512-0.349 1.031-0.56 1.551-0.56 0.78 0 1.373 0.455 1.373 1.145 0 0.39-0.154 0.666-0.455 0.966 0.39 0.171 0.634 0.56 0.617 0.983 0 0.877-0.682 1.373-1.527 1.373-0.633-0.008-1.243-0.227-1.738-0.617l0.219-0.39 0.479 0.179z"></path>
  <path d="M1.868 30.904c-0.658-0.008-1.291-0.236-1.803-0.642l-0.065-0.057 0.309-0.536 0.536 0.203c0.349 0.13 0.65 0.219 0.983 0.219s0.763-0.114 0.763-0.658c0-0.187-0.033-0.3-0.122-0.382-0.097-0.089-0.268-0.138-0.52-0.138h-0.439c-0.138 0-0.203-0.065-0.203-0.195v-0.552h0.78c0.089 0.008 0.179-0.032 0.219-0.114 0.089-0.13 0.138-0.284 0.146-0.447 0-0.374-0.211-0.56-0.625-0.56-0.276 0.008-0.552 0.065-0.812 0.171l-0.544 0.195-0.309-0.544 0.073-0.049c0.569-0.39 1.105-0.585 1.608-0.585 0.869 0 1.478 0.512 1.478 1.251 0 0.349-0.114 0.634-0.39 0.942 0.365 0.219 0.552 0.56 0.552 1.007 0.008 0.877-0.65 1.47-1.616 1.47zM0.26 30.156c0.463 0.349 1.023 0.544 1.608 0.544 0.707 0 1.421-0.398 1.421-1.275 0.024-0.382-0.203-0.739-0.56-0.893l-0.13-0.065 0.097-0.097c0.309-0.309 0.422-0.56 0.422-0.902 0-0.617-0.528-1.048-1.275-1.048-0.439 0-0.918 0.162-1.421 0.495l0.13 0.236 0.382-0.138c0.276-0.114 0.577-0.171 0.877-0.179 0.528 0 0.828 0.276 0.828 0.763 0 0.203-0.065 0.406-0.187 0.577-0.081 0.13-0.227 0.203-0.382 0.187h-0.577v0.341h0.455c0.309 0 0.52 0.065 0.658 0.195s0.187 0.284 0.187 0.528c0 0.536-0.357 0.861-0.966 0.861-0.365 0-0.69-0.089-1.056-0.227v0l-0.374-0.138-0.138 0.236z"></path>
  <path d="M28.946 13.856c-0.146 0-0.284-0.033-0.422-0.106l-0.008-0.008-3.021-1.641-3.038 1.641c-0.179 0.097-0.398 0.122-0.593 0.089-0.487-0.097-0.812-0.569-0.723-1.064l0.577-3.492-2.461-2.469c-0.138-0.13-0.219-0.309-0.26-0.495-0.041-0.244 0.008-0.487 0.154-0.69 0.138-0.203 0.357-0.333 0.601-0.382h0.016l3.387-0.504 1.511-3.167c0.089-0.195 0.252-0.349 0.447-0.439 0.455-0.211 0.991-0.008 1.202 0.439l1.519 3.167 3.403 0.512c0.187 0.032 0.365 0.122 0.495 0.26 0.357 0.357 0.357 0.95 0 1.308l-2.461 2.469 0.585 3.492c0.032 0.195 0.008 0.406-0.089 0.585-0.114 0.219-0.3 0.382-0.536 0.455-0.097 0.033-0.195 0.041-0.284 0.041zM25.925 10.964l2.623 1.421-0.504-3.038c-0.049-0.292 0.049-0.593 0.252-0.804l2.16-2.177-2.964-0.439c-0.3-0.049-0.56-0.236-0.69-0.512l-1.308-2.737-1.308 2.737c-0.13 0.268-0.382 0.463-0.69 0.512l-2.964 0.447 2.152 2.169c0.211 0.211 0.309 0.512 0.26 0.812l-0.504 3.038 2.623-1.421c0.26-0.162 0.585-0.162 0.861-0.008zM25.641 12.028v0c0 0 0 0 0 0zM21.742 9.145c0 0 0 0 0 0v0zM30.863 5.961c0 0 0 0 0 0v0zM20.118 5.953v0c0 0.008 0 0.008 0 0zM23.082 4.889c0 0 0 0 0 0v0zM27.898 4.889v0c0 0 0 0 0 0z"></path>
</svg>
