<svg viewBox="0 0 32 32">
  <title>img-organizacao</title>
  <style>
    :host {
      --stroke-width: 2;
    }

    :host {
      font-size: 24px;
      stroke: inherit;
    }

    :host path {
      stroke-width: var(--stroke-width);
      fill: currentColor;
      stroke-linecap: round;
      stroke-linejoin: round;
    }

    :host(.ion-color) path {
      --stroke: var(--ion-color-base) !important;
    }

    :host([tp-size='sm']) {      font-size: 16px;
    }

    :host([tp-size='md']) {      font-size: 32px;
    }

    :host([tp-size='lg']) {      font-size: 48px;
    }
  </style>
  <path d="M3.189 31.714c-0.419 0-0.833-0.082-1.22-0.241s-0.738-0.394-1.034-0.69c-0.296-0.296-0.531-0.647-0.691-1.034s-0.243-0.801-0.243-1.22v-22.941c0-0.419 0.083-0.833 0.243-1.22s0.395-0.738 0.691-1.034 0.648-0.53 1.034-0.69c0.387-0.16 0.801-0.242 1.22-0.241h4.050c0.005-0.001 0.010-0.004 0.014-0.008s0.005-0.010 0.005-0.015v-1.192c-0.008-0.188 0.052-0.374 0.168-0.522s0.283-0.25 0.468-0.286c0.109-0.015 0.219-0.007 0.324 0.024s0.202 0.085 0.285 0.157 0.148 0.162 0.193 0.262c0.045 0.1 0.067 0.209 0.066 0.319v1.238c0 0.006 0.002 0.012 0.007 0.016s0.010 0.007 0.016 0.007h15.383c0.003 0 0.006-0.001 0.009-0.002s0.005-0.003 0.007-0.005c0.002-0.002 0.004-0.005 0.005-0.007s0.002-0.006 0.002-0.009v-1.192c-0.007-0.188 0.053-0.373 0.169-0.521s0.282-0.25 0.467-0.287c0.108-0.014 0.217-0.004 0.321 0.028s0.199 0.086 0.281 0.158c0.081 0.072 0.146 0.161 0.19 0.26s0.066 0.207 0.066 0.315v1.238c0 0.006 0.002 0.012 0.007 0.016s0.010 0.007 0.016 0.007h4.050c0.845 0 1.655 0.336 2.252 0.933s0.933 1.407 0.933 2.252v22.941c0 0.845-0.336 1.655-0.933 2.252s-1.407 0.933-2.252 0.933h-26.568zM1.493 28.53c0 0.449 0.178 0.879 0.495 1.196s0.747 0.495 1.196 0.495h26.571c0.449 0 0.879-0.178 1.196-0.495s0.495-0.747 0.495-1.196v-16.145c-0.001-0.005-0.004-0.010-0.008-0.014s-0.010-0.005-0.015-0.005h-29.901c-0.005-0-0.011 0.002-0.015 0.005s-0.007 0.008-0.008 0.014l-0.008 16.145zM3.189 3.897c-0.222-0.001-0.443 0.043-0.648 0.128s-0.393 0.209-0.55 0.366-0.282 0.344-0.368 0.549c-0.085 0.205-0.129 0.426-0.129 0.648v5.261c0.001 0.005 0.004 0.010 0.008 0.014s0.010 0.005 0.015 0.005h29.909c0.005 0 0.011-0.002 0.015-0.005s0.007-0.008 0.008-0.014v-5.261c0-0.449-0.178-0.879-0.495-1.196s-0.747-0.495-1.196-0.495h-4.050c-0.003-0.002-0.007-0.003-0.011-0.003s-0.008 0.001-0.011 0.003v1.733c0.005 0.186-0.056 0.369-0.172 0.515s-0.281 0.246-0.464 0.282c-0.104 0.013-0.209 0.005-0.309-0.024s-0.194-0.079-0.274-0.146c-0.080-0.067-0.146-0.149-0.193-0.243s-0.074-0.195-0.080-0.3v-1.798c-0.003-0.002-0.007-0.003-0.011-0.003s-0.008 0.001-0.011 0.003h-15.406c-0.003-0.002-0.007-0.003-0.011-0.003s-0.008 0.001-0.011 0.003v1.733c0.006 0.187-0.055 0.369-0.171 0.515s-0.281 0.245-0.465 0.281c-0.104 0.012-0.21 0.002-0.31-0.030s-0.193-0.083-0.272-0.151c-0.079-0.069-0.144-0.153-0.189-0.248s-0.070-0.198-0.074-0.303v-1.798h-0.019l-4.050-0.019z"></path>
  <path d="M5.477 23.619v-4.546h1.515c0.453 0 0.846 0.046 1.179 0.137 0.334 0.087 0.617 0.231 0.85 0.432 0.219 0.187 0.386 0.423 0.501 0.706 0.114 0.279 0.171 0.613 0.171 1.001 0 0.384-0.057 0.718-0.171 1.001-0.114 0.279-0.281 0.512-0.501 0.699-0.233 0.201-0.517 0.347-0.85 0.439-0.334 0.087-0.727 0.13-1.179 0.13h-1.515zM6.965 22.796c0.334 0 0.615-0.027 0.843-0.082 0.229-0.059 0.414-0.158 0.555-0.295 0.233-0.224 0.35-0.583 0.35-1.077 0-0.251-0.030-0.464-0.089-0.638-0.055-0.174-0.142-0.318-0.261-0.432-0.142-0.137-0.327-0.233-0.555-0.288-0.229-0.059-0.51-0.089-0.843-0.089h-0.542v2.901h0.542z"></path>
  <path d="M11.317 22.851h1.159v-2.784h-0.007c-0.055 0.023-0.119 0.050-0.192 0.082-0.073 0.027-0.181 0.064-0.322 0.11l-0.569 0.178-0.267-0.651 1.467-0.645c0.064-0.027 0.117-0.046 0.158-0.055s0.094-0.014 0.158-0.014h0.501v3.778h0.953v0.768h-3.038v-0.768z"></path>
  <path d="M15.839 22.323v-0.747h2.229v0.747h-2.229z"></path>
  <path d="M19.417 23.619v-4.546h1.515c0.453 0 0.846 0.046 1.179 0.137 0.334 0.087 0.617 0.231 0.85 0.432 0.219 0.187 0.386 0.423 0.501 0.706 0.114 0.279 0.171 0.613 0.171 1.001 0 0.384-0.057 0.718-0.171 1.001-0.114 0.279-0.281 0.512-0.501 0.699-0.233 0.201-0.517 0.347-0.85 0.439-0.334 0.087-0.727 0.13-1.179 0.13h-1.515zM20.905 22.796c0.334 0 0.615-0.027 0.843-0.082 0.229-0.059 0.414-0.158 0.555-0.295 0.233-0.224 0.35-0.583 0.35-1.077 0-0.251-0.030-0.464-0.089-0.638-0.055-0.174-0.142-0.318-0.261-0.432-0.142-0.137-0.327-0.233-0.555-0.288-0.229-0.059-0.51-0.089-0.843-0.089h-0.542v2.901h0.542z"></path>
  <path d="M25.696 23.619c0.005-0.215 0.021-0.414 0.048-0.597 0.027-0.187 0.064-0.366 0.11-0.535 0.050-0.174 0.114-0.341 0.192-0.501 0.078-0.165 0.171-0.334 0.281-0.507 0.146-0.229 0.277-0.43 0.391-0.603s0.215-0.325 0.302-0.453c0.091-0.128 0.169-0.235 0.233-0.322 0.064-0.091 0.117-0.167 0.158-0.226h-2.489v-0.802h3.518v0.418c0 0.101-0.009 0.174-0.027 0.219-0.014 0.046-0.041 0.105-0.082 0.178l-0.933 1.495c-0.123 0.201-0.231 0.395-0.322 0.583s-0.167 0.373-0.226 0.555c-0.059 0.178-0.105 0.359-0.137 0.542-0.032 0.178-0.053 0.363-0.062 0.555h-0.953z"></path>
</svg>
