<svg aria-hidden="true" style="position: absolute; width: 0; height: 0; overflow: hidden;" version="1.1" xmlns="http://www.w3.org/2000/svg" xmlns:xlink="http://www.w3.org/1999/xlink">
<defs>
<symbol id="tp-intensivao-antigo-icon" viewBox="0 0 32 32">
<path d="M28.064 13.611l-0.296-0.358c0 0 0.296 0.358-0.524 0.456-0.616 0.073-1.446-0.184-1.818-0.317l-0.069 0.051-0.752-0.416 0.766 0.093c0.107 0.006 0.212 0.024 0.315 0.055 0.232-0.17 0.767-0.22 1.016-0.359 0.658-0.373 1.355-0.477 2.084-0.232 0.042-0.52-0.302-0.904-0.743-0.87-0.121 0.009-0.242 0.007-0.364 0.012-1.104 0.046-2.050-0.174-3.084-0.574-0.26-0.084-0.536-0.102-0.805-0.052-0.375 0.055-0.39 0.133-2.238 0.534 0.495 0.037 1.265-0.082 1.743-0.066s0.545 0.086 0.642 0.207c-0.090 0.334-2.658 0.527-3.636 0.109 0 0 0.095 0.307 1.552 0.519 0.738 0.108 0.617 0.442 0.617 0.442l-0.021 0.031c-0.556 0.097-1.135 0-1.697-0.148-2.215-0.566-3.030-2.353-2.068-4.472 0.13-0.284 0.291-0.555 0.485-0.925-0.198 0.063-0.321 0.063-0.373 0.124-0.567 0.686-1.281 0.497-1.989 0.373-0.161-0.023-0.323-0.036-0.485-0.041-3.069-0.216-5.376 0.345-7.427 1.195-1.070 0.445-2.441 1.118-3.486 0.634 0.519 0.87 1.212 1.096 2.001 0.76 0.559-0.237 1.145-0.405 1.697-0.647 1.527-0.665 3.452-1.417 3.827-1.072 0.011 0.041 0.021 0.083 0.032 0.124l-3.846 1.275c0.749 0.221 1.212 0.607 1.405 1.293 0.153 0.548 0.215 1.002 0.121 1.973 0.581-0.322 1.333-0.826 1.981-1.184l0.034 0.056-0.857 0.732c1.582-0.373 2.478-0.437 3.132-0.042-0.949 0.307-1.812 0.845-2.515 1.566l-0.007 0.009c-0.536-0.788-1.771-1.323-4.257-0.202 0 0 2.271-0.701 2.788 0.596s-1.852 0.72-1.993 0.621l0.215 0.267c0 0-1.709-0.221-2.667 0.354s-1.356 1.374-2.228 1.955c-0.872 0.581-1.2 0.612-1.333 0.589 0 0 0.584 0.235 1.756-0.39 0 0-0.713 1.031-1.846 1.185-0.91 0.124-1.922-0.309-2.85-0.969 0 0 2.061 3.058 4.659 1.366s3.246-2.85 4.417-2.197c0 0-1.138 0.435-1.91 1.151 0 0 0.755-0.497 2.287-0.709 0.429-0.057 0.85-0.164 1.256-0.318-0.2 1.072-0.129 2.178 0.207 3.213s0.926 1.965 1.713 2.699c0.787 0.735 1.745 1.25 2.782 1.497s2.119 0.217 3.141-0.088c1.022-0.304 1.952-0.872 2.699-1.65s1.287-1.738 1.567-2.791c0.281-1.052 0.293-2.161 0.036-3.22s-0.775-2.032-1.504-2.827l0.15-0.101c0.459-0.237 1.742-0.763 3.817-0.58 2.194 0.193 2.344 0.211 2.352 0.212l0.394-0.513zM25.479 11.849l0.96 0.034c0 0.070-0.235 0.179-0.242 0.248-0.376-0.014-0.316-0.058-0.727-0.072l0.010-0.21zM16.63 18.159v0.594h-0.587v-0.594h0.587zM16.63 19.153v0.6h-0.587v-0.595l0.587-0.005zM11.345 18.958c0.001-1.348 0.477-2.651 1.339-3.67s2.053-1.685 3.356-1.877v0.67c-0.996 0.168-1.917 0.651-2.631 1.382s-1.187 1.674-1.352 2.695h3.59v0.601h-3.647c0 0.067-0.008 0.132-0.008 0.199s0 0.134 0 0.201h-0.641c-0.002-0.067-0.005-0.133-0.005-0.201zM17.015 24.564c-0.065 0-0.13 0-0.195 0-1.317-0-2.589-0.487-3.584-1.37s-1.646-2.105-1.834-3.44h0.653c0.164 1.021 0.637 1.964 1.351 2.696s1.635 1.216 2.632 1.383v-3.677h0.587v3.741c0.065 0 0.13 0.009 0.195 0.009s0.131 0 0.195 0v0.657zM17.601 19.158v0.6h-0.585v-0.6h0.585zM17.016 18.753v-0.594h0.585v0.594h-0.585zM22.293 18.953c0 1.349-0.475 2.654-1.337 3.673s-2.054 1.687-3.358 1.879v-0.66c0.997-0.168 1.918-0.652 2.633-1.384s1.187-1.676 1.35-2.699h-3.59v-0.605h3.647c0-0.067 0.008-0.133 0.008-0.2s0-0.133 0-0.2h0.646c-0.002 0.067 0 0.133 0 0.2v-0.005zM22.238 18.153h-0.653c-0.164-1.021-0.637-1.964-1.351-2.696s-1.635-1.215-2.632-1.383v3.686h-0.587v-3.739c-0.065 0-0.13-0.010-0.195-0.010s-0.13 0-0.195 0v-0.657c0.065 0 0.13 0 0.195 0 1.316 0 2.588 0.486 3.583 1.368s1.647 2.102 1.836 3.437v-0.005zM31.515 11.903c-0.092 0.478-0.336 0.548-0.336 0.548 0.388-0.984-0.303-1.289-0.618-1.724s0.128-0.896 0.128-0.896c-0.709 0.38-0.578 1.067-0.326 1.648s0.033 0.76 0.033 0.76c-0.251-0.326-0.593-0.565-0.981-0.686 0.142 0.13 0.701 0.966 0.566 1.366s-0.782 0.729-0.782 0.729c0.465 0.067 1.258-0.022 1.704-0.262s0.948-0.709 0.918-1.297c-0.030-0.588 0.178-0.771 0.178-0.771-0.242 0.053-0.417 0.211-0.485 0.584z"></path>
</symbol>
<symbol id="tp-intensivao-r-icon" viewBox="0 0 32 32">
<path d="M14.318 24.329h-0.628l-0.076 0.611h0.628l0.076-0.611zM12.434 24.329l-0.076 0.611h0.628l0.076-0.611h-0.628zM11.137 24.329h0.628l0.076-0.611h-0.628l-0.076 0.611zM9.805 24.94l-0.076 0.611h-1.215l0.076-0.611h-0.597l-0.537 4.393h3.069l0.465-3.782h-0.003l0.153-1.222h-0.628l-0.076 0.611h-0.63zM6 25.551h0.628l0.076-0.611h-0.628l-0.076 0.611zM8.741 23.717l-0.076 0.611h0.628l0.076-0.611h-0.628zM17.458 24.328l-0.076 0.611h0.628l0.076-0.611h-0.628zM16.201 24.328l-0.076 0.611h0.628l0.076-0.611h-0.628zM23.625 23.105l0.342-2.759h-2.473l-0.343 2.759h-2.976c0.34-0.618 0.511-1.311 0.511-2.080 0-0.58-0.078-1.074-0.232-1.484-0.156-0.409-0.382-0.766-0.679-1.068-0.397-0.399-0.921-0.688-1.572-0.869s-1.491-0.272-2.521-0.272h-4.76l-0.707 5.772h1.857l-0.076 0.611h0.628l0.076-0.611h0.583l0.39-3.257h2.008c0.805 0 1.339 0.132 1.6 0.399 0.211 0.218 0.317 0.568 0.317 1.050 0 0.254-0.043 0.522-0.131 0.805s-0.211 0.516-0.372 0.697c-0.111 0.132-0.232 0.218-0.362 0.254-0.074 0.020-0.162 0.035-0.264 0.043v0.009l-0.078 0.611h0.628l0.076-0.611h1.884l-0.076 0.611h1.257l-0.076 0.611h0.628l0.076-0.611h0.628l-0.076 0.611h-0.628l-0.076 0.611h-0.628l-0.076 0.611h2.913l-0.343 2.777h2.473l0.344-2.777h2.776l0.306-2.445h-2.775zM15.421 25.55l0.076-0.611h-1.257l-0.076 0.611h-0.628l0.076-0.611-0.628 0.001-0.076 0.609h0.106c0.161 0 0.276 0.012 0.344 0.037s0.133 0.108 0.196 0.254l1.451 3.203c0.062 0.132 0.126 0.215 0.196 0.245 0.068 0.030 0.176 0.046 0.325 0.046h2.845l-1.837-3.782h-1.112l-0.001-0.001zM16.678 25.55h0.628l0.076-0.611h-0.629l-0.075 0.611zM15.022 23.716l-0.076 0.611h1.257l0.076-0.611h-1.257z"></path>
<path d="M12 13.273c1.25 0.188 3.386-0.065 4.587-0.728s2.547-1.972 2.466-3.605c-0.079-1.618 0.503-2.138 0.503-2.138-0.668 0.149-1.136 0.588-1.327 1.625-0.246 1.327-0.902 1.521-0.902 1.521 1.044-2.735-0.814-3.584-1.665-4.793-0.849-1.207 0.348-2.489 0.348-2.489-1.908 1.056-1.556 2.967-0.878 4.579 0.7 1.664 0.090 2.116 0.090 2.116-1.13-1.517-2.641-1.907-2.641-1.907 0.381 0.364 1.885 2.685 1.523 3.79s-2.103 2.028-2.103 2.028z"></path>
</symbol>
<symbol id="tp-intensivao-r1-icon" viewBox="0 0 32 32">
<path d="M26.457 23.515c0 0-0.108 0.073-0.281 0.195-0.807 0.553-3.284 2.187-6.214 3.49l3.829-9.831h-2.228c-0.186 0-0.418 0.116-0.556 0.224-0.989 0.776-3.231 2.843-3.254 2.863l-0.336 0.31h2.156c0.172-0.007 0.39-0.12 0.519-0.22 0.196-0.153 0.387-0.313 0.584-0.48l-3.054 7.336h-4.293c-0.35-0.787-0.701-1.571-1.051-2.357l-0.306-0.686c-0.018-0.042-0.036-0.084-0.055-0.127h0.001c1.243-0.098 2.229-0.425 3.102-1.026 1.354-0.933 2.031-2.085 2.010-3.424-0.023-1.424-1.2-2.429-2.863-2.442-0.6-0.005-1.211-0.004-1.803-0.004-0.56 0-1.12 0.001-1.68-0.002h-0.007c-0.271 0-0.418 0.102-0.525 0.359-1.058 2.564-2.141 5.169-3.188 7.689l-0.804 1.934c-0.164 0.395-0.328 0.789-0.494 1.191l-0.333 0.804h2.1l0.404-0.97c0.554-1.328 1.104-2.647 1.658-3.965 0.019-0.045 0.040-0.083 0.057-0.106 0.028 0.018 0.063 0.047 0.092 0.074l2.285 4.43c0.012 0.023 0.311 0.561 0.926 0.561h0.231c2.137 0 4.5-0.732 6.557-1.603h3.571l-0.109-0.25c-0.287-0.654 1.642-2.318 3.153-3.393 0.259-0.176 0.402-0.279 0.408-0.283l-0.211-0.293 0.001 0.004zM19.493 27.404c-2.086 0.886-4.359 1.573-6.404 1.573h-0.231c-0.394 0-0.596-0.356-0.603-0.367l-2.308-4.474-0.017-0.018c-0.063-0.067-0.23-0.224-0.402-0.224-0.182 0-0.3 0.188-0.367 0.347-0.555 1.318-1.105 2.637-1.659 3.966l-0.312 0.747h-1.314l0.128-0.31c0.166-0.402 0.329-0.796 0.493-1.191l0.804-1.934c1.047-2.52 2.131-5.126 3.19-7.69 0.056-0.136 0.077-0.136 0.192-0.135 0.56 0.004 1.121 0.004 1.682 0.002 0.59 0 1.2-0.001 1.799 0.004 1.453 0.012 2.482 0.871 2.501 2.089 0.019 1.213-0.605 2.264-1.855 3.124-0.819 0.563-1.747 0.869-2.922 0.962-0.041 0.004-0.084 0.006-0.138 0.010l-0.362 0.024 0.148 0.356c0.035 0.085 0.067 0.163 0.102 0.239l0.306 0.686c0.367 0.822 0.734 1.642 1.099 2.465l0.047 0.108h4.776l3.721-8.938-0.572 0.482c-0.12 0.102-0.236 0.2-0.347 0.295-0.276 0.234-0.537 0.457-0.802 0.665-0.103 0.080-0.244 0.14-0.299 0.142h-1.224c0.666-0.608 2.146-1.948 2.893-2.534 0.109-0.086 0.261-0.146 0.329-0.146h1.698l-3.768 9.676-0.002-0.001zM22.718 27.374h-2.258c0.588-0.269 1.142-0.543 1.648-0.807 0.618-0.323 1.199-0.646 1.724-0.952-0.758 0.739-1.126 1.32-1.114 1.759z"></path>
<path d="M12.841 22.592c0.187-0.002 0.402-0.053 0.658-0.15 0.904-0.344 1.472-0.916 1.692-1.701 0.136-0.484 0.078-0.932-0.164-1.259-0.227-0.31-0.606-0.493-1.064-0.514-0.491-0.024-0.994-0.022-1.481-0.019-0.283 0.001-0.567 0.002-0.849 0-0.306-0.002-0.39 0.215-0.438 0.332-0.157 0.384-0.315 0.768-0.474 1.152l-0.892 2.167h0.271c0.245 0 0.488 0 0.731 0 0.245 0 0.486 0 0.724 0 0.431 0 0.855-0.002 1.286-0.008h-0.001zM10.832 22.24c-0.153 0-0.307 0-0.462 0l0.689-1.673c0.158-0.384 0.317-0.768 0.474-1.153 0.045-0.109 0.047-0.109 0.096-0.108 0.284 0.004 0.57 0.002 0.855 0 0.482-0.002 0.98-0.005 1.461 0.019 0.351 0.017 0.623 0.144 0.787 0.366 0.175 0.238 0.214 0.578 0.108 0.954-0.189 0.678-0.672 1.155-1.472 1.461-0.213 0.081-0.392 0.123-0.533 0.126-0.666 0.011-1.315 0.008-2.003 0.007z"></path>
<path d="M12 13.273c1.25 0.188 3.386-0.065 4.587-0.728s2.547-1.972 2.466-3.605c-0.079-1.618 0.503-2.138 0.503-2.138-0.668 0.149-1.136 0.588-1.327 1.625-0.246 1.327-0.902 1.521-0.902 1.521 1.044-2.735-0.814-3.584-1.665-4.793-0.849-1.207 0.348-2.489 0.348-2.489-1.908 1.056-1.556 2.967-0.878 4.579 0.7 1.664 0.090 2.116 0.090 2.116-1.13-1.517-2.641-1.907-2.641-1.907 0.381 0.364 1.885 2.685 1.523 3.79s-2.103 2.028-2.103 2.028z"></path>
</symbol>
<symbol id="tp-intensivao-rmais-icon" viewBox="0 0 32 32">
<path d="M12 13.273c1.25 0.188 3.386-0.065 4.587-0.728s2.547-1.972 2.466-3.605c-0.079-1.618 0.503-2.138 0.503-2.138-0.668 0.149-1.136 0.588-1.327 1.625-0.246 1.327-0.902 1.521-0.902 1.521 1.044-2.735-0.814-3.584-1.665-4.793-0.849-1.207 0.348-2.489 0.348-2.489-1.908 1.056-1.556 2.967-0.878 4.579 0.7 1.664 0.090 2.116 0.090 2.116-1.13-1.517-2.641-1.907-2.641-1.907 0.381 0.364 1.885 2.685 1.523 3.79s-2.103 2.028-2.103 2.028z"></path>
<path d="M11.114 27.795h-2.842c-0.152 0-0.263-0.022-0.349-0.070s-0.167-0.133-0.254-0.271l-1.395-2.389c-0.056-0.098-0.089-0.139-0.103-0.154-0.017-0.004-0.059-0.011-0.145-0.011h-1.126v2.895h-2.901v-9.634h4.22c0.787 0 1.452 0.070 1.978 0.208 0.545 0.143 0.998 0.389 1.346 0.728 0.271 0.273 0.483 0.608 0.632 0.995 0.147 0.385 0.222 0.826 0.222 1.314 0 0.695-0.16 1.309-0.473 1.828-0.268 0.441-0.591 0.802-0.962 1.076l2.152 3.484zM8.141 27.331c0 0 0.035 0.012 0.131 0.012h2.035l-1.957-3.171 0.188-0.12c0.391-0.248 0.728-0.603 1.003-1.056 0.271-0.447 0.408-0.983 0.408-1.593 0-0.432-0.064-0.819-0.192-1.152-0.125-0.329-0.303-0.61-0.528-0.836-0.29-0.283-0.676-0.489-1.145-0.613-0.489-0.128-1.117-0.193-1.865-0.193h-3.772v8.732h2.004v-2.895h1.574c0.176 0 0.292 0.022 0.377 0.073 0.083 0.050 0.16 0.144 0.259 0.316l1.39 2.38c0.056 0.088 0.088 0.111 0.088 0.111l0.001 0.002zM6.992 22.946h-2.539v-2.722h1.808c0.32 0 0.574 0.020 0.774 0.060 0.224 0.045 0.409 0.133 0.549 0.263 0.107 0.107 0.185 0.247 0.248 0.435 0.058 0.176 0.087 0.36 0.087 0.549 0 0.151-0.017 0.326-0.052 0.523-0.037 0.213-0.1 0.392-0.188 0.537l-0.010 0.015c-0.097 0.134-0.196 0.223-0.3 0.273-0.099 0.047-0.223 0.068-0.377 0.068zM4.901 22.496h2.091c0.113 0 0.166-0.017 0.187-0.027 0.012-0.006 0.054-0.030 0.121-0.122 0.056-0.095 0.098-0.219 0.124-0.371 0.030-0.171 0.045-0.321 0.045-0.446 0-0.141-0.021-0.278-0.064-0.407-0.048-0.147-0.099-0.218-0.133-0.252-0.072-0.066-0.183-0.117-0.326-0.146-0.168-0.034-0.4-0.051-0.686-0.051h-1.36v1.821l0.001 0.001z"></path>
<path d="M19.159 27.794h-7.667v-9.634h7.544v2.487h-4.643v1.059h4.23v2.446h-4.23v1.156h4.766v2.487zM11.94 27.343h6.771v-1.585h-4.766v-2.057h4.23v-1.544h-4.23v-1.96h4.643v-1.585h-6.647v8.732z"></path>
<path d="M21.118 24.14h-1.727v-2.447h3.389c0.123 0 0.219 0.021 0.295 0.063 0.089 0.050 0.159 0.141 0.216 0.286 0 0 1.229 3.255 1.369 3.661 0.027 0.077 0.052 0.153 0.076 0.225 0.025-0.080 0.051-0.163 0.078-0.249 0.138-0.428 0.318-0.968 0.539-1.605l2.231-6.381c0.043-0.146 0.112-0.245 0.208-0.299 0.074-0.042 0.171-0.062 0.294-0.062h2.583l-4.452 12h-2.594c-0.12 0-0.209-0.016-0.279-0.051-0.094-0.047-0.162-0.142-0.221-0.305l-2.003-4.839-0.001 0.003zM21.41 23.688l0.188 0.451 1.941 4.679c0.011 0.030 0.020 0.051 0.027 0.066 0.012 0 0.031 0.003 0.054 0.003h2.283l4.116-11.098h-1.936c-0.027 0-0.047 0.001-0.059 0.004-0.004 0.010-0.010 0.024-0.015 0.044 0 0-2.633 7.563-2.77 7.988-0.134 0.417-0.224 0.75-0.269 0.99l-0.033 0.184h-0.382l-0.038-0.178c-0.053-0.248-0.147-0.573-0.282-0.964-0.137-0.402-1.363-3.645-1.363-3.645-0.011-0.029-0.021-0.047-0.027-0.057-0.012-0.002-0.033-0.005-0.066-0.005h-2.941v1.543h1.571v-0.002z"></path>
</symbol>
<symbol id="tp-rmais-icon" viewBox="0 0 32 32">
<path d="M11.074 17.394l-0.1 0.821h0.821l0.1-0.821h-0.821zM8.459 18.215h-0.821l-0.1 0.821h-1.589l0.1-0.821h-0.781l-0.703 5.9h4.012l0.608-5.080h-0.004l0.1-0.82 0.1-0.821h-0.821l-0.1 0.821h-0.001zM2.667 19.036h0.821l0.1-0.821h-0.821l-0.1 0.821zM6.249 16.573l-0.1 0.821h0.821l0.1-0.821h-0.821zM9.38 17.394h0.821l0.1-0.821h-0.821l-0.1 0.821zM13.538 17.394h-0.821l-0.1 0.821h0.821l0.1-0.821zM25.704 15.753l0.447-3.705h-3.233l-0.448 3.705h-3.89c0.444-0.83 0.668-1.761 0.668-2.794 0-0.778-0.102-1.442-0.304-1.993s-0.498-1.029-0.887-1.434c-0.519-0.535-1.204-0.924-2.054-1.167s-1.949-0.366-3.293-0.366h-6.223l-0.924 7.753h2.428l-0.1 0.821h0.821l0.1-0.821h0.762l0.51-4.373h2.625c1.053 0 1.751 0.178 2.091 0.535 0.275 0.292 0.413 0.762 0.413 1.41 0 0.34-0.057 0.701-0.17 1.082s-0.276 0.693-0.486 0.936c-0.146 0.178-0.304 0.292-0.474 0.34-0.097 0.028-0.212 0.047-0.344 0.059l-0.002 0.013-0.1 0.821h0.821l0.1-0.821h2.463l-0.1 0.821h1.642l-0.1 0.821h0.821l0.1-0.821h0.821l-0.1 0.821h-0.821l-0.1 0.821h-0.821l-0.1 0.821h3.808l-0.447 3.729h3.233l0.45-3.729h3.629l0.1-0.821 0.1-0.821 0.199-1.642-3.632-0.002zM16.001 17.394l-0.1 0.821h0.821l0.1-0.821h-0.821zM17.643 17.394l-0.1 0.821h0.821l0.1-0.821h-0.821zM14.458 16.573l-0.1 0.821h1.642l0.1-0.821h-1.642zM14.98 19.036l0.1-0.821h-1.642l-0.1 0.821h-0.821l0.1-0.821h-0.821l-0.1 0.82h0.138c0.211 0 0.36 0.017 0.45 0.049s0.174 0.146 0.255 0.34l1.896 4.302c0.081 0.178 0.166 0.288 0.255 0.328s0.231 0.061 0.425 0.061h3.719l-2.4-5.079h-1.453zM16.622 19.036h0.821l0.1-0.821h-0.821l-0.1 0.821z"></path>
</symbol>
<symbol id="tp-no-papo-icon" viewBox="0 0 32 32">
<path d="M8.821 5.333v8.711h-1.347l-2.459-6.695v6.695h-1.013v-8.711h1.347l2.459 6.695v-6.695h1.013z"></path>
<path d="M15.988 6.042v7.292c0 0.385-0.333 0.709-0.766 0.709h-2.67c-0.432 0-0.766-0.324-0.766-0.709v-7.292c0-0.385 0.333-0.709 0.766-0.709h2.67c0.433 0 0.766 0.324 0.766 0.709zM14.777 6.379h-1.78c-0.111 0-0.198 0.1-0.198 0.186v6.247c0 0.087 0.086 0.186 0.198 0.186h1.78c0.111 0 0.198-0.1 0.198-0.186v-6.247c0-0.087-0.086-0.186-0.198-0.186z"></path>
<path d="M8.202 18.665v3.858c0 0.385-0.333 0.709-0.766 0.709h-2.422v3.435h-1.013v-8.711h3.436c0.433 0 0.766 0.324 0.766 0.709zM6.991 19.001h-1.978v3.186h1.978c0.111 0 0.198-0.1 0.198-0.186v-2.813c0-0.088-0.086-0.187-0.198-0.187z"></path>
<path d="M12.96 24.402h-1.829l-0.482 2.265h-1.075l1.978-8.711h0.989l1.978 8.711h-1.075l-0.483-2.265zM12.738 23.356l-0.692-3.248-0.692 3.248h1.384z"></path>
<path d="M21.043 18.665v3.858c0 0.385-0.333 0.709-0.766 0.709h-2.422v3.435h-1.013v-8.711h3.436c0.432 0 0.766 0.324 0.766 0.709zM19.831 19.001h-1.978v3.186h1.978c0.111 0 0.198-0.1 0.198-0.186v-2.813c0-0.088-0.086-0.187-0.198-0.187z"></path>
<path d="M28 18.665v7.292c0 0.385-0.333 0.709-0.766 0.709h-2.67c-0.432 0-0.766-0.324-0.766-0.709v-7.292c0-0.385 0.333-0.709 0.766-0.709h2.67c0.433 0 0.766 0.324 0.766 0.709zM26.789 19.001h-1.78c-0.111 0-0.198 0.1-0.198 0.187v6.247c0 0.088 0.086 0.187 0.198 0.187h1.78c0.111 0 0.198-0.1 0.198-0.187v-6.247c0-0.088-0.086-0.187-0.198-0.187z"></path>
</symbol>
<symbol id="tp-racipe-icon" viewBox="0 0 32 32">
<path d="M19.661 18.524h-1.58v-5.535h1.58v5.535zM18.443 18.162h0.855v-4.81h-0.855v4.81z"></path>
<path d="M21.907 18.524h-1.579v-5.535h2.264c0.919 0 1.525 0.178 1.907 0.56 0.33 0.33 0.497 0.799 0.497 1.392s-0.183 1.125-0.53 1.463c-0.364 0.355-0.908 0.527-1.663 0.527h-0.896v1.591l0 0zM20.69 18.162h0.855v-1.591h1.258c0.656 0 1.118-0.139 1.41-0.424 0.276-0.269 0.421-0.685 0.421-1.205s-0.132-0.876-0.392-1.136c-0.31-0.31-0.835-0.454-1.651-0.454h-1.902v4.811l-0-0zM23.115 15.942h-1.57v-1.93h1.094c0.458 0 0.719 0.074 0.9 0.256 0.144 0.144 0.217 0.373 0.217 0.682s-0.075 0.597-0.202 0.787c-0.136 0.206-0.365 0.205-0.439 0.205zM21.907 15.58h1.208c0.109 0 0.126-0.026 0.138-0.044 0.086-0.129 0.142-0.359 0.142-0.586 0-0.206-0.038-0.354-0.111-0.426-0.105-0.105-0.298-0.15-0.644-0.15h-0.732v1.206l-0 0z"></path>
<path d="M29.592 18.524h-4.286v-5.535h4.209v1.377h-2.629v0.667h2.395v1.361h-2.395v0.754h2.707l-0 1.376zM25.667 18.162h3.562v-0.652h-2.707v-1.477h2.395v-0.637h-2.395v-1.392h2.629v-0.652h-3.484v4.81z"></path>
<path d="M4.342 18.328h-1.21v-5.142h2.118c0.845 0 1.419 0.147 1.776 0.489 0.288 0.279 0.427 0.683 0.427 1.195 0 0.69-0.357 1.226-0.846 1.551l1.171 1.908h-1.226c-0.116 0-0.163-0.031-0.217-0.116l-0.853-1.45c-0.062-0.1-0.078-0.109-0.202-0.109h-0.939v1.675l0-0zM5.777 15.668c0.132 0 0.209-0.031 0.271-0.124 0.109-0.163 0.163-0.388 0.163-0.636s-0.054-0.411-0.171-0.519c-0.147-0.132-0.38-0.186-0.768-0.186h-0.931v1.466h1.435z"></path>
<path d="M15.304 18.587c-1.573 0-2.671-1.162-2.671-2.825s1.143-2.834 2.717-2.834c1.129 0 2.010 0.611 2.418 1.675l0.053 0.137-1.002 0.648-0.746-0.611c-0.321-0.262-0.515-0.347-0.801-0.347-0.644 0-1.013 0.479-1.013 1.316s0.407 1.323 1.176 1.323c0.273 0 0.589-0.082 0.939-0.246l0.961-0.444 0.605 0.87-0.082 0.105c-0.583 0.749-1.586 1.233-2.555 1.233l0 0.001zM15.35 13.29c-1.387 0-2.355 1.016-2.355 2.472s0.95 2.463 2.309 2.463c0.816 0 1.659-0.386 2.185-0.992l-0.277-0.398-0.684 0.317c-0.398 0.186-0.766 0.28-1.092 0.28-0.963 0-1.538-0.63-1.538-1.686 0-0.811 0.361-1.678 1.375-1.678 0.424 0 0.699 0.158 1.030 0.429l0.541 0.444 0.53-0.343c-0.375-0.845-1.088-1.308-2.024-1.308z"></path>
<path d="M9.016 18.22c-0.031 0.085-0.062 0.109-0.147 0.109h-1.148l1.877-5.142h1.287c0.109 0 0.171 0.047 0.202 0.14l1.892 5.003h-1.194c-0.085 0-0.116-0.015-0.147-0.109l-0.729-2.024c-0.24-0.676-0.504-1.528-0.597-1.932h-0.016c-0.101 0.412-0.326 1.21-0.589 1.971l-0.69 1.986v-0.001z"></path>
<path d="M11.679 5.333h-1.068v6.785h1.068v-6.785z"></path>
<path d="M9.899 7.144h-1.068v4.974h1.068v-4.974z"></path>
<path d="M7.050 11.052h-3.917v1.066h4.985v-6.785h-1.068v5.718z"></path>
<path d="M13.46 7.144h-1.068v4.974h18.275v-1.066h-17.207v-3.908z"></path>
<path d="M9.899 19.397h-1.069v6.784h1.069v-6.784z"></path>
<path d="M12.391 19.396v6.786h1.068v-5.719h16.096v-1.066h-17.164z"></path>
<path d="M1.333 19.396v1.066h5.716v3.908h1.069v-4.974h-6.785z"></path>
<path d="M11.679 19.397h-1.068v4.974h1.068v-4.974z"></path>
</symbol>
<symbol id="tp-rac-icon" viewBox="0 0 32 32">
<path d="M18.133 2.733c-0.4-0.067-0.867-0.067-1.333-0.067 0 2.867 0 5.733 0 8.6 0.467 0 0.933 0 1.4 0 0-2.867 0-5.733-0.067-8.533z"></path>
<path d="M14.467 4.733c0 2.2 0 4.333 0 6.533 0.467 0 0.933 0 1.4-0.067 0-2.133 0-4.267 0-6.467-0.467 0-0.933 0-1.4 0z"></path>
<path d="M20.533 9.867c0-1.667 0-3.4 0-5.067-0.467 0-0.933 0-1.4 0 0 2.133 0 4.333 0 6.467 2.933 0 5.867 0 8.8 0 0-0.467 0-0.933 0-1.4-2.467 0-4.933 0-7.4 0z"></path>
<path d="M12.133 9.8c-1.733 0-3.4 0-5.067 0.067 0 0.467 0 0.933 0 1.4 2.133 0 4.333 0 6.467 0 0 0 0 0 0-0.067 0-2.867 0-5.667 0-8.533-0.467 0-0.933 0-1.333 0-0.067 2.4-0.133 4.8-0.067 7.133z"></path>
<path d="M23.2 19.467c-0.4 0-0.733 0-1.133-0.067-1.333-0.267-2.133-1.067-2.467-2.4 0-0.133 0-0.2-0.067-0.267-0.2-1.267 0.133-2.4 1-3.333 1.267-1 2.667-1.133 4.067-0.267 0.533 0.4 0.867 0.867 1.133 1.467-0.333 0.2-0.667 0.467-1 0.667-0.4-0.333-0.733-0.6-1.133-0.933-0.6-0.4-1.2-0.4-1.8-0.067-0.467 0.467-0.733 1-0.667 1.667 0.067 1.6 0.933 2.267 2.467 1.933 0.6-0.2 1.133-0.467 1.667-0.733 0.2 0.267 0.4 0.467 0.533 0.733 0 0.067 0 0.133-0.067 0.2-0.667 0.733-1.533 1.2-2.533 1.4z"></path>
<path d="M19.6 17c0-0.133 0-0.2-0.067-0.267 0 0.067 0 0.133 0.067 0.267z"></path>
<path d="M17.6 13.333c-0.067-0.2-0.2-0.4-0.333-0.6-0.333-0.067-0.667-0.067-0.933-0.067h-0.867c-0.8 2.2-1.6 4.4-2.4 6.6-0.467-0.8-1-1.6-1.467-2.4 0.2-0.2 0.467-0.4 0.6-0.6 0.4-0.6 0.533-1.267 0.4-1.933-0.133-0.6-0.467-1.067-1.067-1.4-0.467-0.2-0.933-0.267-1.467-0.267-1-0.067-2.067-0.067-3.067-0.067 0 2.267 0 4.467 0 6.733 0.533 0 1.067 0 1.533 0 0.067-0.733 0.067-1.467 0.067-2.2 0.467 0 0.933 0 1.333 0 0.4 0.6 0.8 1.2 1.133 1.867 0.067 0.133 0.133 0.2 0.267 0.333 1.067 0 2.133 0 3.2 0 0 0 0.067 0 0.067-0.067 0.667-1.733 1.2-3.467 1.733-5.2 0.533 1.733 1.133 3.533 1.8 5.2 0 0.067 0.067 0.067 0.067 0.067 0.533 0 1.067 0 1.6-0.067-0.733-2-1.467-4-2.2-5.933zM10.8 15.8c-0.067 0.067-0.133 0.067-0.2 0.133v0c-0.667 0.067-1.333 0.067-2 0.067v-1.933c0.533 0 1 0 1.467 0.067 0.267 0 0.533 0.067 0.733 0.2 0.133 0.133 0.2 0.267 0.2 0.4 0.067 0.333 0 0.667-0.2 1.067z"></path>
<path d="M19.8 19.267c0 0 0.067 0.067 0.067 0.133-0.533 0-1.067 0-1.667-0.067 0.6 0 1.133 0 1.6-0.067z"></path>
<path d="M22.067 19.4c0.4 0 0.733 0.067 1.133 0.067-0.333 0.067-0.667 0.067-0.933 0-0.133 0-0.133-0.067-0.2-0.067z"></path>
<path d="M15.867 20.8c-0.467-0.067-0.933-0.067-1.4-0.067 0 2.867 0 5.733 0.067 8.6 0.467 0 0.933 0 1.333 0 0-2.867 0-5.667 0-8.533z"></path>
<path d="M16.8 20.733c0 2.2 0 4.333 0 6.533 0.467 0 0.933 0 1.4 0 0-2.2 0-4.333 0-6.533-0.467 0-0.933 0-1.4 0z"></path>
<path d="M19.133 20.8c0 2.867 0 5.667 0 8.533 0.467 0 0.933 0 1.4 0 0-2.4 0-4.8 0-7.2 1.667 0 3.4 0 5.067 0 0.067-0.467 0.067-0.933 0.067-1.4-2.2 0-4.4 0-6.533 0.067z"></path>
<path d="M4.667 20.8c0 0.467 0 0.933 0 1.333 2.467 0.067 4.933 0.067 7.467 0.067 0 1.667 0 3.4 0.067 5.067 0.467 0.067 0.933 0.067 1.4 0.067 0-2.2 0-4.333 0-6.533-3-0.067-6-0.067-8.933 0z"></path>
</symbol>
<symbol id="tp-ventilamed-icon" viewBox="0 0 32 32">
<path stroke="var(--tp-color-neutral-10)" stroke-linejoin="miter" stroke-linecap="butt" stroke-miterlimit="4" stroke-width="0.6667" d="M21.492 8.692l-8.75 9.066c-3.010-2.94-5.989-5.917-8.937-8.931 0.55-0.539 1.072-1.097 1.568-1.672 2.377 2.331 4.757 4.666 7.143 7.005l0.232 0.227 0.233-0.225c2.386-2.303 4.74-4.645 7.061-7.025 0.508 0.498 0.991 1.017 1.45 1.555zM24.947 12.109l-8.947 9.049-1.66-1.679c2.967-2.969 5.893-5.964 8.778-8.987 0.674 0.426 1.28 0.96 1.818 1.604l0.009 0.011 0.002 0.002zM28.299 15.497l0.009 0.011 0.002 0.002-8.947 9.049-1.66-1.679c2.967-2.969 5.893-5.964 8.778-8.987 0.674 0.426 1.28 0.96 1.818 1.604z"></path>
</symbol>
<symbol id="tp-medimagem-icon" viewBox="0 0 32 32">
<path d="M25.333 8h-18.667v0.819h18.667v-0.819zM6.667 15.333h18.667v-5.626h-18.667v5.626z"></path>
<path d="M5.621 24.949h-0.574l-1.164-3.193h-1.3v3.575h0.433v-3.192h0.553l0.639 1.783 0.509 1.41h1.229l0.52-1.42 0.628-1.772h0.552v3.193h0.433v-3.577h-1.299l-1.159 3.193zM29.366 21.757l-1.159 3.193h-0.574l-1.164-3.193h-1.3v3.575h0.433v-3.192h0.553l0.639 1.783 0.509 1.41h1.229l0.52-1.42 0.628-1.772h0.553v3.193h0.433v-3.577h-1.301zM20.079 25.332h4.549v-0.383h-4.115v-1.247h3.844v-0.378l-3.844-0.005v-1.18h4.115v-0.383h-4.549v3.575zM14.555 22.467v2.156l0.595 0.71h4.386v-2.008h-1.976v0.383h1.543v1.242h-3.682l-0.433-0.465v-1.88l0.39-0.465h4.159v-0.383h-4.392l-0.59 0.71zM10.315 21.757l-1.051 2.151-0.174 0.353-0.525 1.073h0.477l0.509-1.042 1.798 0.005 1.733-0.005 0.509 1.042h0.477l-1.749-3.575-2.004-0.001zM9.741 23.907l0.016-0.036 0.845-1.731h1.43l0.861 1.767h-3.152z"></path>
<path d="M1.333 20.667h0.441v0.521h-0.441v-0.521z"></path>
<path d="M1.774 25.333h-0.441v-3.58h0.441v3.58z"></path>
</symbol>
<symbol id="tp-medeletro-icon" viewBox="0 0 32 32">
<path d="M18.617 14.388h-1.611l-0.582 1.589h1.611l0.582-1.589z"></path>
<path d="M16.932 18.994h-1.611l-2.43 6.657h1.611l2.43-6.657z"></path>
<path d="M17.776 16.69h-1.611l-0.582 1.591h1.611l0.582-1.591z"></path>
<path d="M27.53 16.688h-9.049l-0.582 1.593h9.050l0.58-1.593z"></path>
<path d="M19.32 14.388l-0.58 1.589h6.71l0.58-1.589h-6.71z"></path>
<path d="M18.876 13.674l3.29-9.007h-1.611l-3.29 9.007h1.611z"></path>
<path d="M22.013 7.016l-2.432 6.658h9.050l0.582-1.591h-7.439l1.85-5.068h-1.611z"></path>
<path d="M11.326 28l3.29-9.006h-1.611l-3.29 9.006h1.611z"></path>
<path d="M6.43 16.69l-0.58 1.591h6.708l0.582-1.591h-6.71z"></path>
<path d="M16.297 14.388h-1.611l-0.58 1.589h1.611l0.58-1.589z"></path>
<path d="M13.265 18.281h1.611l0.58-1.591h-1.611l-0.58 1.591z"></path>
<path d="M8.256 25.651h1.611l2.43-6.657h-9.049l-0.582 1.589h7.439l-1.85 5.068z"></path>
<path d="M29.333 18.994h-11.695l-3.29 9.006h1.611l2.71-7.417h5.099v-0.006h4.88l0.685-1.583z"></path>
<path d="M13.981 14.386h-9.050l-0.582 1.593h9.050l0.582-1.593z"></path>
<path d="M17.532 4.667h-1.611l-2.71 7.417h-5.099l-0.58 1.591h6.71l3.29-9.007z"></path>
<path d="M14.947 13.674h1.611l2.432-6.658h-1.611l-2.432 6.658z"></path>
</symbol>
<symbol id="tp-cpmed-icon" viewBox="0 0 32 32">
<path d="M18.431 22.263h-9.479v1.63h9.479v-1.63zM15.9 19.552h-6.948v1.63h6.948v-1.63zM10.461 5.395h-1.493v1.63h1.493v-1.63zM10.461 2.667h-1.493v1.63h1.493v-1.63zM10.461 8.106h-1.493v10.347h1.493v-10.347zM18.431 29.333v-1.63h-6.948v1.63h6.948zM18.431 24.992h-9.479v1.63h9.479v-1.63zM5.493 19.552h-1.493v1.63h1.493v-1.63zM7.961 22.281h-1.493v1.63h1.493v-1.63zM7.961 19.552h-1.493v1.63h1.493v-1.63zM7.961 8.106h-1.493v10.347h1.493v-10.347zM5.493 10.869h-1.493v7.602h1.493v-7.602zM5.493 22.281h-1.493v1.63h1.493v-1.63zM20.914 24.992h-1.493v1.63h1.493v-1.63zM23.398 13.563h-1.493v10.348h1.493v-10.348zM23.398 24.992h-1.493v1.63h1.493v-1.63zM23.414 10.835h-6.948v1.63h6.948v-1.63zM21.905 29.333h1.493v-1.63h-1.493v1.63zM25.897 8.106h-1.493v1.613h1.493v-1.613zM25.897 13.563h-1.493v10.348h1.493v-10.348zM25.897 10.852h-1.493v1.613h1.493v-1.613zM19.421 29.333h1.493v-1.63h-1.493v1.63zM12.944 2.667h-1.493v1.63h1.493v-1.63zM23.398 8.106h-9.479v1.613h9.479v-1.613zM12.944 5.395h-1.493v1.63h1.493v-1.63zM20.914 16.292h-1.493v7.602h1.493v-7.602zM23.398 5.378h-9.479v1.63h9.479v-1.63zM12.944 8.106h-1.493v7.602h1.493v-7.602zM20.883 2.667h-6.948v1.63h6.948v-1.63zM26.888 21.165h1.493v-7.602h-1.493v7.602zM26.888 8.106v1.63h1.493v-1.63h-1.493zM26.888 12.482h1.493v-1.63h-1.493v1.63z"></path>
</symbol>
<symbol id="tp-medmaster-icon" viewBox="0 0 32 32">
<path stroke-linejoin="miter" stroke-linecap="butt" stroke-miterlimit="4" stroke-width="0.3333" d="M22.902 11.905l0.147-0.087-0.775-1.246-1.275 0.754 0.775 1.246 1.128-0.667zM16.902 6.914l0.122-0.12-1.058-1.027-1.054 1.031 1.058 1.027 0.932-0.912zM10.911 11.472l0.090-0.145-1.275-0.754-0.775 1.246 1.275 0.754 0.685-1.101zM30.519 12.827l-0.045-0.158-1.436 0.387 0.046 0.162 0.353 1.244 1.436-0.387-0.046-0.162-0.308-1.086zM0.506 13.912l-0.046 0.162 1.436 0.387 0.399-1.406-1.436-0.387-0.353 1.244zM21.696 14.449l-0.128-0.274-2.993 4.653-2.606-8.928-2.606 8.928-2.993-4.653-2.454 5.253-4.972-4.105-0.26 0.192 3.791 9.275 1.791-3.834 4.416 3.646 1.015-3.478 2.272 3.533 2.272-3.533 1.015 3.478 4.416-3.646 1.791 3.834 3.791-9.275-0.26-0.192-4.972 4.105-2.326-4.979zM6.534 22.388l-1.767-4.323 2.732 2.256-0.966 2.067zM13.007 20.047l-0.843 2.886-3.481-2.874 1.822-3.901 2.502 3.889zM23.256 20.060l-3.481 2.874-0.843-2.886 2.502-3.889 1.822 3.901zM24.44 20.321l2.732-2.256-1.767 4.322-0.965-2.067zM17.885 19.901l-1.916 2.978-1.916-2.978 1.916-6.563 1.916 6.563z"></path>
</symbol>
<symbol id="tp-med-icon" viewBox="0 0 32 32">
<path d="M16 2.667c-7.364 0-13.333 5.969-13.333 13.333s5.97 13.333 13.333 13.333c7.364 0 13.333-5.969 13.333-13.333s-5.968-13.333-13.333-13.333zM14.325 15.583v-1.254h1.256v1.254h-1.256zM15.581 16.418v1.254h-1.256v-1.254h1.256zM14.325 13.494v-5.851h1.256v5.85h-1.256v0.002zM4.266 16c0-5.912 4.374-10.801 10.063-11.613v1.401c-4.376 0.711-7.824 4.165-8.536 8.54h7.694v1.257h-7.818c-0.005 0.139-0.018 0.276-0.018 0.417s0.005 0.279 0.011 0.418h-1.385c-0.005-0.139-0.011-0.279-0.011-0.418v-0.002zM13.488 16.417v1.254h-5.864v-1.254h5.864zM16.419 27.722c-0.14 0.006-0.278 0.011-0.419 0.011-5.911 0-10.8-4.372-11.614-10.057h1.4c0.713 4.372 4.166 7.818 8.537 8.531v-7.7h1.256v7.822c0.14 0.006 0.278 0.020 0.419 0.020s0.279-0.006 0.419-0.011v1.384h0.002zM17.678 16.417v1.254h-1.256v-1.254h1.256zM16.422 15.582v-1.254h1.256v1.254h-1.256zM17.676 18.506v5.85h-1.256v-5.85h1.256zM27.735 16c0 5.912-4.374 10.801-10.063 11.613v-1.401c4.376-0.711 7.824-4.166 8.536-8.54h-7.694v-1.257h7.818c0.006-0.138 0.018-0.276 0.018-0.415s-0.005-0.279-0.011-0.418h1.385c0.005 0.139 0.011 0.279 0.011 0.418zM18.514 15.582v-1.254h5.864v1.254h-5.864zM26.214 14.325c-0.712-4.372-4.166-7.818-8.537-8.531v7.7h-1.256v-7.822c-0.14-0.006-0.278-0.020-0.419-0.020s-0.279 0.005-0.417 0.011v-1.384c0.14-0.005 0.278-0.011 0.417-0.011 5.911 0 10.799 4.372 11.614 10.057h-1.402z"></path>
</symbol>
<symbol id="tp-medcurso-icon" viewBox="0 0 32 32">
<path d="M11.158 29.305c0.578 0 1.155 0 1.733 0 0-3.276 0-6.552 0-9.829-2.5 0-5.001 0-7.501 0 0 0.553 0 1.106 0 1.659 1.927-0.008 3.85 0 5.768 0.025 0 2.715 0 5.43 0 8.145z"></path>
<path d="M11.158 29.305c0.582 0.025 1.168 0.033 1.758 0.025 0.008-3.289-0-6.573-0.025-9.853 0 3.276 0 6.552 0 9.829-0.578 0-1.155 0-1.733 0z"></path>
<path d="M16.407 29.305c0.578 0 1.155 0 1.733 0 0-3.276 0-6.552 0-9.829-0.578 0-1.155 0-1.733 0 0 3.276 0 6.552 0 9.829z"></path>
<path d="M16.407 29.305c0.582 0.025 1.168 0.033 1.758 0.025 0-3.293 0-6.585 0-9.878-0.59-0.008-1.176 0-1.758 0.025 0.578 0 1.155 0 1.733 0 0 3.276 0 6.552 0 9.829-0.578 0-1.155 0-1.733 0z"></path>
<path d="M13.857 26.731c0.578 0 1.155 0 1.733 0 0-2.426 0-4.852 0-7.279-0.578 0-1.155 0-1.733 0 0 2.426 0 4.852 0 7.279z"></path>
<path d="M20.839 26.731c0-1.865 0-3.73 0-5.595 2.831 0 5.661 0 8.492 0 0-0.561 0-1.122 0-1.684-3.408 0-6.816 0-10.225 0 0 2.426 0 4.852 0 7.279 0.578 0 1.155 0 1.733 0z"></path>
<path d="M20.839 26.731c0.025-1.853 0.033-3.709 0.025-5.57 2.827 0.008 5.649 0 8.467-0.025-2.83 0-5.661 0-8.492 0 0 1.865 0 3.73 0 5.595z"></path>
<path d="M11.158 21.16c-1.919-0.025-3.841-0.033-5.768-0.025 0-0.553 0-1.106 0-1.659 2.5 0 5.001 0 7.501 0-2.505-0.025-5.013-0.033-7.526-0.025 0 0.569 0 1.139 0 1.708 1.931 0 3.862 0 5.793 0z"></path>
<path d="M12.891 16.877c-3.404-0.025-6.812-0.033-10.225-0.025 0 0.569 0 1.139 0 1.708 3.417 0 6.833 0 10.249 0 0.008-0.565-0-1.127-0.025-1.683z"></path>
<path d="M12.891 16.877c-3.4 0-6.8-0-10.2-0 0 0.553 0 1.106 0 1.659 3.4 0 6.8 0 10.2 0 0-0.553 0-1.106 0-1.659z"></path>
<path d="M15.59 18.561c0-0.561 0-1.122 0-1.683-0.578 0-1.155 0-1.733 0 0 0.561 0 1.122 0 1.683 0.578 0 1.155 0 1.733 0z"></path>
<path d="M16.407 18.536c0.578 0 1.155 0 1.733 0 0-0.553 0-1.106 0-1.659-0.578 0-1.155 0-1.733 0 0 0.553 0 1.106 0 1.659z"></path>
<path d="M16.407 18.536c0.582 0.025 1.168 0.033 1.758 0.025 0-0.569 0-1.139 0-1.708-0.59-0.008-1.176-0-1.758 0.025 0.578 0 1.155 0 1.733 0 0 0.553 0 1.106 0 1.659-0.578 0-1.155 0-1.733 0z"></path>
<path d="M19.106 18.561c2.509 0 5.018 0 7.526 0 0-0.561 0-1.122 0-1.683-2.509 0-5.017 0-7.526 0 0 0.561 0 1.122 0 1.683z"></path>
<path d="M15.59 18.561c0.025-0.565 0.033-1.135 0.025-1.708-0.59-0.008-1.176 0-1.758 0.025 0.578 0 1.155 0 1.733 0 0 0.561 0 1.122 0 1.683z"></path>
<path d="M13.857 16.085c0.578 0 1.155 0 1.733 0 0-0.561 0-1.122 0-1.683-0.578 0-1.155 0-1.733 0 0 0.561 0 1.122 0 1.683z"></path>
<path d="M18.14 16.085c0-0.553 0-1.106 0-1.659-0.578 0-1.155 0-1.733 0 0 0.553 0 1.106 0 1.659 0.578 0 1.155 0 1.733 0z"></path>
<path d="M29.306 16.085c0-0.553 0-1.106 0-1.659-3.4 0-6.8 0-10.2 0 0 0.553 0 1.106 0 1.659 3.4 0 6.8 0 10.2 0z"></path>
<path d="M5.39 16.085c0-0.553 0-1.106 0-1.659 2.5 0 5.001 0 7.501 0 0 0.553 0 1.106 0 1.659 0.025-0.557 0.033-1.118 0.025-1.683-2.517 0-5.034 0-7.551 0-0.008 0.565 0 1.127 0.025 1.683z"></path>
<path d="M5.39 16.085c2.5 0 5.001 0 7.501 0 0-0.553 0-1.106 0-1.659-2.5 0-5.001 0-7.501 0 0 0.553 0 1.106 0 1.659z"></path>
<path d="M18.14 16.085c0.025-0.557 0.033-1.118 0.025-1.683-0.59-0.008-1.176 0-1.758 0.025 0.578 0 1.155 0 1.733 0 0 0.553 0 1.106 0 1.659z"></path>
<path d="M29.306 16.085c0.025-0.557 0.033-1.118 0.025-1.683-3.412-0.008-6.821 0-10.225 0.025 3.4 0 6.8 0 10.2 0 0 0.553 0 1.106 0 1.659z"></path>
<path d="M12.891 13.486c0.025-2.414 0.033-4.832 0.025-7.254-0.586 0-1.172 0-1.758 0 0 1.857 0 3.714 0 5.57-2.818 0.025-5.641 0.033-8.467 0.025 0 0.553 0 1.106 0 1.659 3.4 0 6.8 0 10.2 0z"></path>
<path d="M13.857 13.486c0.578 0 1.155 0 1.733 0 0-3.284 0-6.569 0-9.853-0.578 0-1.155 0-1.733 0 0 3.285 0 6.569 0 9.853z"></path>
<path d="M16.407 13.486c0.578 0 1.155 0 1.733 0 0-2.418 0-4.836 0-7.254-0.578 0-1.155 0-1.733 0 0 2.418 0 4.836 0 7.254z"></path>
<path d="M16.407 13.486c0.582 0.025 1.168 0.033 1.758 0.025 0.008-2.43-0-4.857-0.025-7.279 0 2.418 0 4.836 0 7.254-0.578 0-1.155 0-1.733 0z"></path>
<path d="M19.106 13.486c2.509 0 5.018 0 7.526 0 0-0.561 0-1.122 0-1.683-1.931 0-3.862 0-5.793 0 0-2.723 0-5.447 0-8.17-0.578 0-1.155 0-1.733 0 0 3.285 0 6.569 0 9.853z"></path>
<path d="M19.106 13.486c2.513 0.025 5.030 0.033 7.551 0.025 0.008-0.574 0-1.143-0.025-1.708 0 0.561 0 1.122 0 1.683-2.509 0-5.017 0-7.526 0z"></path>
</symbol>
<symbol id="tp-revalidacao-icon" viewBox="0 0 32 32">
<path d="M11.359 3.333h1.639v0.827h-1.090l-9.353 23.013h1.709c0.105 0 0.211-0.032 0.322-0.134 0.119-0.109 0.259-0.314 0.382-0.686 0.225-0.682 1.837-4.546 2.604-6.37l0.106-0.252h5.32v0.827h-4.778c-0.809 1.924-2.273 5.443-2.475 6.056-0.15 0.455-0.351 0.801-0.608 1.036-0.264 0.243-0.568 0.349-0.872 0.349h-2.93l10.025-24.667z"></path>
<path d="M14.637 3.333h-1.639v0.827h1.090l1.352 3.326 0.758-0.314-1.56-3.839zM22.414 22.469l-4.873-11.989-0.757 0.314 4.873 11.989 0.757-0.314zM18.318 19.732h-5.32v0.827h4.778c0.262 0.622 0.594 1.417 0.93 2.227l0.755-0.32c-0.384-0.925-0.763-1.83-1.038-2.482l-0.106-0.252zM19.613 24.988c0.326 0.801 0.567 1.411 0.638 1.627 0.15 0.455 0.351 0.801 0.608 1.036 0.264 0.243 0.568 0.349 0.872 0.349h2.931l-1.352-3.326-0.758 0.314 0.888 2.186h-1.709c-0.105 0-0.211-0.032-0.322-0.134-0.119-0.109-0.259-0.314-0.382-0.686-0.082-0.249-0.337-0.892-0.658-1.68l-0.757 0.314z"></path>
<path d="M12.986 5.815l1.872 4.525-0.756 0.319-1.092-2.641-3.642 9.372h7.519l-1.359-3.286 0.756-0.319 1.833 4.431h-9.949l4.819-12.401z"></path>
<path d="M16.954 3.333h1.912v0.827h-1.363l-5.608 13.799-0.757-0.314 5.817-14.312zM10.185 19.988l0.757 0.314-2.793 6.871h1.709c0.147 0 0.408-0.076 0.712-0.843l0.012-0.030c0.265-0.668 0.54-1.364 0.684-1.655l0.113-0.229h7.486v0.827h-6.971c-0.141 0.326-0.349 0.85-0.564 1.394-0.338 0.852-0.8 1.362-1.472 1.362h-2.931l3.256-8.012z"></path>
<path d="M20.641 3.333h-1.912v0.827h1.363l9.353 23.013h-1.709c-0.147 0-0.408-0.076-0.712-0.843l-0.012-0.030c-0.265-0.668-0.54-1.364-0.684-1.655l-0.113-0.229h-7.486v0.827h6.971c0.141 0.326 0.349 0.85 0.564 1.394 0.338 0.852 0.8 1.362 1.472 1.362h2.93l-10.025-24.667z"></path>
<path d="M18.729 5.519l6.88 17.52h-13.761l1.177-2.998 0.761 0.305-0.733 1.867h11.349l-5.675-14.45-4.003 10.193-0.761-0.305 4.764-12.131z"></path>
</symbol>
<symbol id="tp-medfoco-icon" viewBox="0 0 32 32">
<path d="M11.68 19.202h-1.035v1.034h1.035v-1.034zM10.644 25.373h1.035v-4.566h-1.035v4.566zM11.679 12.46h-1.035v4.566h1.035v-4.566zM11.68 17.596h-1.035v1.035h1.035v-1.035zM10.074 25.373v-4.566h-1.034v4.566h1.034zM14.474 17.596h-2.224v1.035h3.346l-0.113-0.908-1.009-0.127zM15.677 19.281l-0.010-0.080h-3.418v1.034h3.967c-0.292-0.231-0.493-0.57-0.54-0.954zM12.249 25.373h1.035v-3.532h3.532v-1.034h-4.567v4.566zM19.328 17.859l-0.912 1.877c-0.038 0.079-0.084 0.152-0.135 0.222-0.228 1.733-1.012 3.336-2.27 4.593-1.509 1.51-3.517 2.342-5.652 2.342s-4.142-0.831-5.652-2.342c-1.51-1.51-2.342-3.517-2.342-5.652s0.832-4.143 2.342-5.652 3.516-2.341 5.652-2.341c2.135 0 4.144 0.831 5.652 2.341 0.069 0.069 0.134 0.139 0.2 0.21l0.971-0.472c-1.659-1.91-4.106-3.112-6.822-3.112-2.411 0-4.678 0.939-6.382 2.643s-2.644 3.972-2.644 6.383c0 2.411 0.939 4.678 2.644 6.383s3.972 2.644 6.382 2.644c4.791 0 8.743-3.735 9.014-8.51h0.014v-1.034h-0.014c-0.010-0.177-0.026-0.352-0.046-0.525zM12.25 17.025h0.75c-0.164-0.194-0.28-0.429-0.325-0.69-0.014-0.080-0.021-0.162-0.021-0.245 0-0.479 0.242-0.927 0.631-1.194v-2.436h-1.035v4.565zM10.074 19.202h-1.035v1.034h1.035v-1.034zM10.074 17.596h-1.035v1.035h1.035v-1.035zM26.361 15.683c1.31-1.31 1.825-3.223 1.355-5.012l0.007-0.002-0.026-0.094c-0.631-2.232-2.693-3.791-5.016-3.791-0.771 0-1.513 0.165-2.207 0.49l-0.085 0.041c-0.024 0.012-0.049 0.024-0.072 0.036l-0.020 0.010c-0.307 0.158-0.599 0.347-0.868 0.561l-0.078 0.064 0.001 0.001c-0.834 0.693-1.418 1.61-1.696 2.63 0.23 0.203 0.453 0.416 0.666 0.637 0.229-1.362 1.081-2.546 2.34-3.194l0.016-0.008c0.022-0.011 0.043-0.022 0.065-0.033l0.080-0.038c0.024-0.011 0.049-0.023 0.075-0.033 1.683-0.739 3.609-0.377 4.908 0.923 1.725 1.725 1.725 4.531 0 6.256-0.942 0.942-2.233 1.404-3.557 1.275v-0.002l-0.089-0.011c-0.391-0.046-0.765-0.143-1.117-0.283 0.077 0.295 0.142 0.596 0.195 0.9 0.468 0.134 0.949 0.201 1.429 0.201 1.353-0.001 2.694-0.524 3.695-1.524zM21.192 14.019l-0.314 0.647h5.060v-0.647h-0.431v-0.754c0-0.2-0.080-0.392-0.221-0.533s-0.333-0.221-0.533-0.221h-0.108v-1.509h0.862v-1.371l-2.91-1.698-2.91 1.698v1.371h0.862v0.924c0.158 0.071 0.304 0.168 0.43 0.294 0.084 0.084 0.157 0.177 0.216 0.275v-1.493h1.078v1.509h-1.069c0.117 0.198 0.183 0.42 0.197 0.647h3.351c0.029 0 0.056 0.012 0.076 0.032s0.032 0.048 0.032 0.076v0.754h-3.667zM20.334 10.354v-0.353l2.264-1.32 2.264 1.32v0.353h-4.528zM23.998 12.51h-1.078v-1.509h1.078v1.509zM27.328 16.651c1.747-1.747 2.306-4.23 1.679-6.449 0.003-0.001 0.005-0.001 0.007-0.002-0.782-2.762-3.321-4.787-6.333-4.787-0.996 0-1.941 0.222-2.787 0.619-0.015 0.007-0.030 0.014-0.044 0.021-0.021 0.010-0.042 0.021-0.063 0.031-0.031 0.014-0.061 0.030-0.091 0.045-0.008 0.005-0.017 0.009-0.025 0.013-0.382 0.197-0.75 0.432-1.096 0.709 0.001 0.001 0.001 0.001 0.001 0.002-0.931 0.744-1.655 1.736-2.073 2.875 0.226 0.152 0.446 0.311 0.66 0.479 0.475-1.467 1.517-2.678 2.869-3.373 0.007-0.004 0.014-0.007 0.022-0.011 0.029-0.015 0.057-0.029 0.086-0.043 0.019-0.009 0.039-0.019 0.058-0.028 0.015-0.007 0.031-0.014 0.046-0.022 0.032-0.014 0.063-0.029 0.095-0.043 0.001 0 0.002-0.001 0.003-0.001 2.125-0.933 4.696-0.53 6.436 1.211 2.266 2.266 2.266 5.939 0 8.204-1.306 1.306-3.079 1.858-4.78 1.659 0-0.001 0-0.002 0-0.004-0.228-0.027-0.451-0.068-0.67-0.12 0.031 0.269 0.052 0.542 0.062 0.816 2.084 0.413 4.327-0.187 5.94-1.8zM30.365 9.816l-0.027-0.097 0.009-0.002c-1-3.371-4.137-5.718-7.665-5.718-1.183 0-2.321 0.253-3.385 0.751l-0.13 0.063c-0.037 0.018-0.074 0.036-0.111 0.055l-0.031 0.015c-0.447 0.23-0.874 0.503-1.268 0.811l-0.062 0.052c-1.097 0.877-1.924 2-2.431 3.261 0.234 0.116 0.463 0.24 0.687 0.372 0.627-1.619 1.826-2.984 3.433-3.81l0.027-0.014c0.035-0.018 0.071-0.035 0.107-0.053l0.129-0.062c0.040-0.018 0.079-0.036 0.119-0.053 1.319-0.58 2.766-0.751 4.187-0.496 1.453 0.261 2.776 0.952 3.824 2 2.814 2.814 2.814 7.394 0 10.208-1.367 1.367-3.188 2.114-5.093 2.114-0.283 0-0.569-0.016-0.856-0.050l-0.090-0.011 0.001-0.005c-0.116-0.015-0.231-0.034-0.345-0.055-0.005 0.263-0.018 0.523-0.041 0.781 2.494 0.411 5.115-0.372 6.971-2.228 2.045-2.044 2.825-5.045 2.038-7.832zM19.787 12.891l-5.857 2.845c-0.135 0.065-0.222 0.205-0.222 0.354 0 0.023 0.002 0.044 0.005 0.065 0.028 0.171 0.168 0.304 0.34 0.326l2.373 0.297 0.296 2.373c0.021 0.172 0.156 0.311 0.327 0.34 0.021 0.004 0.042 0.005 0.063 0.005 0.148 0 0.289-0.085 0.356-0.222l2.845-5.859c0.072-0.152 0.042-0.333-0.077-0.45-0.116-0.115-0.3-0.147-0.449-0.075zM17.34 17.736l-0.17-1.36c-0.023-0.178-0.164-0.319-0.342-0.341l-1.359-0.17 3.639-1.768-1.767 3.639zM10.074 12.46h-1.034v4.566h1.034v-4.566zM8.468 12.46h-1.034v3.532h-3.533v1.034h4.567v-4.566zM8.468 25.373v-4.566h-4.567v1.034h3.533v3.532h1.034zM8.468 17.596h-4.567v1.035h4.567v-1.035zM8.468 19.202h-4.567v1.034h4.567v-1.034z"></path>
</symbol>
<symbol id="tp-medatb-icon" viewBox="0 0 32 32">
<path d="M15.465 6.37h-1.211v5.395h1.211v-5.395zM14.253 21.627h1.211v-5.395h-1.211v5.395zM13.585 12.437h-1.211v1.222h1.211v-1.222zM12.374 21.627h1.211v-5.395h-1.211v5.395zM13.585 14.336h-1.211v1.222h1.211v-1.222zM15.465 12.437h-1.211v1.222h1.211v-1.222zM15.465 14.336h-1.211v1.222h1.211v-1.222zM7.282 20.677c-1.767-1.783-2.742-4.155-2.742-6.677 0-2.523 0.973-4.895 2.742-6.678 1.767-1.785 4.118-2.766 6.619-2.766 2.499 0 4.85 0.982 6.617 2.766 1.767 1.782 2.742 4.155 2.742 6.678 0 0.395-0.027 0.784-0.073 1.169 0.379-0.297 0.809-0.531 1.273-0.686 0.007-0.161 0.012-0.323 0.012-0.485 0-5.661-4.374-10.329-9.964-10.649v-0.017h-1.211v0.017c-5.589 0.32-9.963 4.988-9.963 10.649 0 2.849 1.099 5.527 3.096 7.541s4.65 3.124 7.474 3.124c0.217 0 0.433-0.009 0.649-0.023 0.122-0.45 0.314-0.883 0.577-1.279-0.403 0.053-0.812 0.083-1.227 0.083-2.502-0.001-4.853-0.985-6.62-2.768zM16.133 6.37v5.396h5.347v-1.223h-4.136v-4.173h-1.211zM16.133 21.628h1.211v-4.173h4.136v-1.222h-5.347v5.395zM21.48 12.439h-5.347v1.222h5.347v-1.222zM21.48 14.336h-5.347v1.222h5.347v-1.222zM25.63 27.028h1.211v-1.222h-1.211v1.222zM17.527 24.141c-0.979 0.506-1.206 1.483-0.704 2.513 0.158-0.059 0.318-0.117 0.475-0.176-0.244-1.213-0.070-1.54 1.083-2.040 0.903-0.392 1.809-0.775 2.746-1.175-0.079-0.207-0.144-0.378-0.235-0.612-1.15 0.503-2.289 0.934-3.365 1.491zM13.585 6.37h-1.211v5.395h1.211v-5.395zM27.511 27.028h1.211v-1.222h-1.211v1.222zM26.535 16.66c-0.073 0.153-0.146 0.309-0.217 0.461 1.016 0.694 1.119 1.049 0.643 2.222-0.373 0.917-0.754 1.831-1.144 2.778 0.199 0.092 0.366 0.168 0.594 0.272 0.473-1.172 0.986-2.285 1.369-3.442 0.347-1.052-0.17-1.911-1.244-2.291zM27.779 15.641c-1.88-1.246-4.354-0.488-5.226 1.608-0.491 1.18-0.968 2.366-1.461 3.544-0.039 0.093-0.132 0.189-0.223 0.228-0.94 0.402-1.885 0.791-2.828 1.187-0.61 0.255-1.224 0.491-1.73 0.952-1.373 1.255-1.543 3.467-0.354 4.884 1.023 1.222 2.632 1.618 4.104 1.004 1.351-0.563 2.7-1.132 4.051-1.698 0.052-0.023 0.101-0.050 0.159-0.080-0.704-1.72-1.401-3.425-2.12-5.179 1.746 0.728 3.436 1.432 5.122 2.135 0.024-0.021 0.037-0.029 0.042-0.039 0.603-1.468 1.233-2.926 1.8-4.407 0.574-1.509-0.019-3.268-1.336-4.14zM23.153 26.815c-1.226 0.51-2.425 1.018-3.63 1.507-0.37 0.15-0.768 0.186-1.165 0.125-1.111-0.173-1.88-0.785-2.214-1.872-0.33-1.079-0.039-2.023 0.771-2.796 0.162-0.155 0.357-0.294 0.562-0.383 1.201-0.519 2.41-1.022 3.643-1.543 0.677 1.654 1.349 3.296 2.032 4.963zM28.317 19.438c-0.446 1.231-0.979 2.429-1.485 3.666-1.639-0.684-3.267-1.363-4.917-2.050 0.504-1.22 0.967-2.427 1.495-3.603 0.756-1.681 2.959-2.083 4.255-0.782 0.768 0.772 1.026 1.734 0.652 2.769zM27.511 28.927h1.211v-1.222h-1.211v1.222zM25.63 28.927h1.211v-1.222h-1.211v1.222zM6.359 13.662h5.345v-1.222h-5.345v1.222zM11.706 21.627v-5.395h-5.347v1.222h4.136v4.173h1.211zM6.359 15.558h5.345v-1.222h-5.345v1.222zM11.706 6.37h-1.211v4.173h-4.134v1.222h5.345v-5.395z"></path>
</symbol>
</defs>
</svg>
