<svg viewBox="0 0 24 24">
  <title>covid</title>
  <style>
    :host {
      --stroke-width: 2;
    }

    :host {
      font-size: 24px;
      stroke: inherit;
    }

    :host path {
      stroke: currentColor;
      stroke-width: var(--stroke-width);
      fill: none;
      stroke-linecap: round;
      stroke-linejoin: round;
    }

    :host(.ion-color) path {
      --stroke: var(--ion-color-base) !important;
    }

    :host([tp-size='sm']) {
      font-size: 16px;
    }

    :host([tp-size='md']) {
      font-size: 32px;
    }

    :host([tp-size='lg']) {
      font-size: 48px;
    }
  </style>
  <path d="M12 17C14.7614 17 17 14.7614 17 12C17 9.23858 14.7614 7 12 7C9.23858 7 7 9.23858 7 12C7 14.7614 9.23858 17 12 17Z"/>
  <path d="M5 10C6.10457 10 7 9.10457 7 8C7 6.89543 6.10457 6 5 6C3.89543 6 3 6.89543 3 8C3 9.10457 3.89543 10 5 10Z"/>
  <path d="M5 18C6.10457 18 7 17.1046 7 16C7 14.8954 6.10457 14 5 14C3.89543 14 3 14.8954 3 16C3 17.1046 3.89543 18 5 18Z"/>
  <path d="M12 6C13.1046 6 14 5.10457 14 4C14 2.89543 13.1046 2 12 2C10.8954 2 10 2.89543 10 4C10 5.10457 10.8954 6 12 6Z"/>
  <path d="M19 10C20.1046 10 21 9.10457 21 8C21 6.89543 20.1046 6 19 6C17.8954 6 17 6.89543 17 8C17 9.10457 17.8954 10 19 10Z"/>
  <path d="M19 18C20.1046 18 21 17.1046 21 16C21 14.8954 20.1046 14 19 14C17.8954 14 17 14.8954 17 16C17 17.1046 17.8954 18 19 18Z"/>
  <path d="M12 22C13.1046 22 14 21.1046 14 20C14 18.8954 13.1046 18 12 18C10.8954 18 10 18.8954 10 20C10 21.1046 10.8954 22 12 22Z"/>
</svg>
