<svg viewBox="0 0 80 80">
  <title>ilustracao-tema</title>
  <style>
    :host {
      --stroke-width: 2;
    }

    :host {
      font-size: 24px;
      stroke: inherit;
    }

    :host path {
      stroke: currentColor;
      stroke-width: var(--stroke-width);
      fill: none;
      stroke-linecap: round;
      stroke-linejoin: round;
    }

    :host(.ion-color) path {
      --stroke: var(--ion-color-base) !important;
    }

    :host([tp-size='sm']) {      font-size: 16px;
    }

    :host([tp-size='md']) {      font-size: 32px;
    }

    :host([tp-size='lg']) {      font-size: 48px;
    }
  </style>
  <path d="M31 31.9286V15.5238C31 14.8545 31.2702 14.2127 31.7507 13.7394C32.2313 13.2661 32.8829 13 33.5625 13H61.75L72 23.0952V63.4762C72 64.1455 71.7301 64.7876 71.2496 65.2609C70.769 65.7342 70.1171 66 69.4375 66H33.5625C32.8829 66 32.2313 65.7342 31.7507 65.2609C31.2702 64.7876 31 64.1455 31 63.4762V39.3235"/>
  <path d="M68 24H60V17"/>
  <path d="M31 23L14.4382 31.1404C11.0959 33.0816 10.5473 35.887 9.83643 38.1538C9.12557 40.4206 4 56 4 56"/>
  <path d="M23 63L24.3603 57.5088C27.9337 55.2856 29.7635 53.009 31 48"/>
  <path d="M17 38.699L28.9201 31.8949C31.1989 30.6578 32.5635 30.6581 33.4274 32.1797C34.9926 34.8642 33.1271 38.0807 30.5102 39.6023L27.5551 41.2846C27.1578 41.5107 26.8311 41.8402 26.6103 42.2372C26.3895 42.6343 26.2831 43.0837 26.303 43.5363C26.3638 45.1903 25.9683 46.8293 25.1588 48.2784C24.3494 49.7275 23.1567 50.9319 21.7079 51.7629L19.5418 53"/>
  <path d="M60 47.7402V48.5234C59.9949 50.355 59.3984 52.1359 58.2991 53.601C57.1999 55.0661 55.657 56.1372 53.8998 56.6543C52.1427 57.1714 50.2654 57.107 48.5478 56.4708C46.8301 55.8347 45.3641 54.6606 44.3677 53.1237C43.3713 51.5868 42.898 49.7692 43.0184 47.9415C43.1387 46.1139 43.846 44.3738 45.0353 42.9808C46.2246 41.5878 47.8322 40.6164 49.6184 40.2109C51.4046 39.8054 53.2738 39.9878 54.9479 40.7308"/>
  <path d="M60 42L51.5336 50L49 47.6059"/>
</svg>
