<svg viewBox="0 0 24 24">
  <title>numbers</title>
  <style>
    :host {
      --stroke-width: 2;
    }

    :host {
      font-size: 24px;
      stroke: inherit;
    }

    :host path {
      stroke: none;
      stroke-width: var(--stroke-width);
      fill: currentColor;
      stroke-linecap: round;
      stroke-linejoin: round;
    }

    :host(.ion-color) path {
      --stroke: var(--ion-color-base) !important;
    }

    :host([tp-size='sm']) {
      font-size: 16px;
    }

    :host([tp-size='md']) {
      font-size: 32px;
    }

    :host([tp-size='lg']) {
      font-size: 48px;
    }
  </style>
  <path d="M16.274 11.784c0 0.843-0.107 1.595-0.32 2.256s-0.517 1.227-0.912 1.696c-0.384 0.459-0.853 0.811-1.408 1.056-0.544 0.245-1.157 0.368-1.84 0.368s-1.301-0.117-1.856-0.352c-0.555-0.245-1.029-0.597-1.424-1.056-0.384-0.469-0.683-1.035-0.896-1.696s-0.32-1.419-0.32-2.272v-0.176c0-0.843 0.107-1.595 0.32-2.256s0.512-1.221 0.896-1.68c0.395-0.469 0.864-0.827 1.408-1.072 0.555-0.245 1.168-0.368 1.84-0.368 0.683 0 1.301 0.123 1.856 0.368s1.029 0.597 1.424 1.056c0.395 0.459 0.699 1.024 0.912 1.696 0.213 0.661 0.32 1.413 0.32 2.256v0.176zM14.018 11.608c0-1.173-0.187-2.021-0.56-2.544-0.363-0.523-0.917-0.784-1.664-0.784-0.757 0-1.323 0.261-1.696 0.784-0.363 0.523-0.544 1.371-0.544 2.544v0.176c0 1.173 0.181 2.021 0.544 2.544 0.373 0.523 0.933 0.784 1.68 0.784s1.307-0.256 1.68-0.768c0.373-0.523 0.56-1.376 0.56-2.56v-0.176z"></path>
</svg>
