<svg viewBox="0 0 32 32" fill="none">
  <title>pix</title>
  <style>
    :host {
      --stroke-width: 2;
    }

    :host {
      font-size: 24px;
      stroke: inherit;
    }

    :host path {
      stroke: currentColor;
      stroke-width: var(--stroke-width);
      fill: none;
      stroke-linecap: round;
      stroke-linejoin: round;
    }

    :host(.ion-color) path {
      --stroke: var(--ion-color-base) !important;
    }

    :host([tp-size='sm']) {      font-size: 16px;
    }

    :host([tp-size='md']) {      font-size: 32px;
    }

    :host([tp-size='lg']) {      font-size: 48px;
    }
  </style>
  <g clip-path="url(#clip0_529_1767)">
    <path d="M15.9997 20.0002V12.0002M25.333 20.0002L19.9997 12.0002M19.9997 20.0002L25.333 12.0002M6.66634 16.6668H9.66634C10.2852 16.6668 10.8787 16.421 11.3163 15.9834C11.7538 15.5458 11.9997 14.9523 11.9997 14.3335C11.9997 13.7147 11.7538 13.1212 11.3163 12.6836C10.8787 12.246 10.2852 12.0002 9.66634 12.0002H6.66634V16.6668ZM6.66634 16.6668V20.0002M3.99967 5.3335H27.9997C29.4724 5.3335 30.6663 6.5274 30.6663 8.00016V24.0002C30.6663 25.4729 29.4724 26.6668 27.9997 26.6668H3.99967C2.52692 26.6668 1.33301 25.4729 1.33301 24.0002V8.00016C1.33301 6.5274 2.52692 5.3335 3.99967 5.3335Z" stroke-width="3" stroke-linecap="round" stroke-linejoin="round"/>
  </g>
  <defs>
    <clipPath id="clip0_529_1767">
      <rect width="32" height="32"/>
    </clipPath>
  </defs>
</svg>
