<svg viewBox="0 0 24 24">
  <title>rate-excelente</title>
  <style>
    :host {
      --stroke-width: 2;
    }

    :host {
      font-size: 24px;
      stroke: inherit;
    }

    :host path {
      stroke: none;
      stroke-width: var(--stroke-width);
      fill: currentColor;
      stroke-linecap: round;
      stroke-linejoin: round;
    }

    :host(.ion-color) path {
      --stroke: var(--ion-color-base) !important;
    }

    :host([tp-size='sm']) {
      font-size: 16px;
    }

    :host([tp-size='md']) {
      font-size: 32px;
    }

    :host([tp-size='lg']) {
      font-size: 48px;
    }
  </style>
  <path d="M3 9C3 8.44772 2.55228 8 2 8C1.44772 8 1 8.44772 1 9H3ZM1 21C1 21.5523 1.44772 22 2 22C2.55229 22 3 21.5523 3 21H1ZM8 17H9V16H8V17ZM7 21C7 21.5523 7.44772 22 8 22C8.55228 22 9 21.5523 9 21H7ZM2 16C1.44772 16 1 16.4477 1 17C1 17.5523 1.44772 18 2 18V16ZM13 21H12V22H13V21ZM14 8C14 7.44772 13.5523 7 13 7C12.4477 7 12 7.44772 12 8H14ZM13 10C12.4477 10 12 10.4477 12 11C12 11.5523 12.4477 12 13 12V10ZM17 12C17.5523 12 18 11.5523 18 11C18 10.4477 17.5523 10 17 10V12ZM13.5547 11.1679C13.0952 10.8616 12.4743 10.9858 12.1679 11.4453C11.8616 11.9048 11.9858 12.5257 12.4453 12.8321L13.5547 11.1679ZM15.4453 14.8321C15.9048 15.1384 16.5257 15.0142 16.8321 14.5547C17.1384 14.0952 17.0142 13.4743 16.5547 13.1679L15.4453 14.8321ZM19.2929 7.29289C18.9024 7.68342 18.9024 8.31658 19.2929 8.70711C19.6834 9.09763 20.3166 9.09763 20.7071 8.70711L19.2929 7.29289ZM21.7071 7.70711C22.0976 7.31658 22.0976 6.68342 21.7071 6.29289C21.3166 5.90237 20.6834 5.90237 20.2929 6.29289L21.7071 7.70711ZM21 10C20.4477 10 20 10.4477 20 11C20 11.5523 20.4477 12 21 12V10ZM22 12C22.5523 12 23 11.5523 23 11C23 10.4477 22.5523 10 22 10V12ZM20.7071 13.2929C20.3166 12.9024 19.6834 12.9024 19.2929 13.2929C18.9024 13.6834 18.9024 14.3166 19.2929 14.7071L20.7071 13.2929ZM20.2929 15.7071C20.6834 16.0976 21.3166 16.0976 21.7071 15.7071C22.0976 15.3166 22.0976 14.6834 21.7071 14.2929L20.2929 15.7071ZM15 22C15.5523 22 16 21.5523 16 21C16 20.4477 15.5523 20 15 20V22ZM15 5.5C15 6.32843 14.3284 7 13.5 7V9C15.433 9 17 7.433 17 5.5H15ZM13.5 7C12.6716 7 12 6.32843 12 5.5H10C10 7.433 11.567 9 13.5 9V7ZM12 5.5C12 4.67157 12.6716 4 13.5 4V2C11.567 2 10 3.567 10 5.5H12ZM13.5 4C14.3284 4 15 4.67157 15 5.5H17C17 3.567 15.433 2 13.5 2V4ZM1 9L1 21H3L3 9H1ZM7 17V21H9V17H7ZM8 16H2V18H8V16ZM14 21V8H12V21H14ZM13 12H17V10H13V12ZM12.4453 12.8321L15.4453 14.8321L16.5547 13.1679L13.5547 11.1679L12.4453 12.8321ZM20.7071 8.70711L21.7071 7.70711L20.2929 6.29289L19.2929 7.29289L20.7071 8.70711ZM21 12H22V10H21V12ZM19.2929 14.7071L20.2929 15.7071L21.7071 14.2929L20.7071 13.2929L19.2929 14.7071ZM13 22H15V20H13V22Z"/>
</svg>
