<svg viewBox="0 0 24 24">
  <title>rate-ruim</title>
  <style>
    :host {
      --stroke-width: 2;
    }

    :host {
      font-size: 24px;
      stroke: inherit;
    }

    :host path {
      stroke: none;
      stroke-width: var(--stroke-width);
      fill: currentColor;
      stroke-linecap: round;
      stroke-linejoin: round;
    }

    :host(.ion-color) path {
      --stroke: var(--ion-color-base) !important;
    }

    :host([tp-size='sm']) {
      font-size: 16px;
    }

    :host([tp-size='md']) {
      font-size: 32px;
    }

    :host([tp-size='lg']) {
      font-size: 48px;
    }
  </style>
  <path d="M22 17L22 21"/>
  <path d="M17 9C17 8.44772 16.5523 8 16 8C15.4477 8 15 8.44772 15 9H17ZM15 21C15 21.5523 15.4477 22 16 22C16.5523 22 17 21.5523 17 21H15ZM22 18C22.5523 18 23 17.5523 23 17C23 16.4477 22.5523 16 22 16V18ZM16 16C15.4477 16 15 16.4477 15 17C15 17.5523 15.4477 18 16 18V16ZM8 19L7.03524 19.2631L7.18932 19.8281L7.75746 19.9701L8 19ZM5.96476 7.73688C5.81945 7.20406 5.26971 6.88992 4.73688 7.03524C4.20406 7.18055 3.88992 7.73029 4.03524 8.26312L5.96476 7.73688ZM2.4453 12.1679C1.98577 12.4743 1.8616 13.0952 2.16795 13.5547C2.4743 14.0142 3.09517 14.1384 3.5547 13.8321L2.4453 12.1679ZM6.5547 11.8321C7.01423 11.5257 7.1384 10.9048 6.83205 10.4453C6.5257 9.98577 5.90483 9.8616 5.4453 10.1679L6.5547 11.8321ZM6.24254 9.02986C5.70674 8.89591 5.16381 9.22167 5.02986 9.75746C4.89591 10.2933 5.22167 10.8362 5.75746 10.9701L6.24254 9.02986ZM9.75746 11.9701C10.2933 12.1041 10.8362 11.7783 10.9701 11.2425C11.1041 10.7067 10.7783 10.1638 10.2425 10.0299L9.75746 11.9701ZM11.7575 20.9701C12.2933 21.1041 12.8362 20.7783 12.9701 20.2425C13.1041 19.7067 12.7783 19.1638 12.2425 19.0299L11.7575 20.9701ZM7.83205 15.5547C8.1384 15.0952 8.01423 14.4743 7.5547 14.1679C7.09517 13.8616 6.4743 13.9858 6.16795 14.4453L7.83205 15.5547ZM2.16795 20.4453C1.8616 20.9048 1.98577 21.5257 2.4453 21.8321C2.90483 22.1384 3.5257 22.0142 3.83205 21.5547L2.16795 20.4453ZM6 5.5C6 6.32843 5.32843 7 4.5 7V9C6.433 9 8 7.433 8 5.5H6ZM4.5 7C3.67157 7 3 6.32843 3 5.5H1C1 7.433 2.567 9 4.5 9V7ZM3 5.5C3 4.67157 3.67157 4 4.5 4V2C2.567 2 1 3.567 1 5.5H3ZM4.5 4C5.32843 4 6 4.67157 6 5.5H8C8 3.567 6.433 2 4.5 2V4ZM15 9L15 21H17L17 9H15ZM22 16H16V18H22V16ZM8.96476 18.7369L5.96476 7.73688L4.03524 8.26312L7.03524 19.2631L8.96476 18.7369ZM3.5547 13.8321L6.5547 11.8321L5.4453 10.1679L2.4453 12.1679L3.5547 13.8321ZM5.75746 10.9701L9.75746 11.9701L10.2425 10.0299L6.24254 9.02986L5.75746 10.9701ZM7.75746 19.9701L11.7575 20.9701L12.2425 19.0299L8.24254 18.0299L7.75746 19.9701ZM6.16795 14.4453L2.16795 20.4453L3.83205 21.5547L7.83205 15.5547L6.16795 14.4453Z"/>
</svg>
