<svg viewBox="0 0 24 24">
  <title>thumbs</title>
  <style>
    :host {
      --stroke-width: 2;
    }

    :host {
      font-size: 24px;
      stroke: inherit;
    }

    :host path {
      stroke: currentColor;
      stroke-width: var(--stroke-width);
      fill: none;
      stroke-linecap: round;
      stroke-linejoin: round;
    }

    :host(.ion-color) path {
      --stroke: var(--ion-color-base) !important;
    }

    :host([tp-size='sm']) {
      font-size: 16px;
    }

    :host([tp-size='md']) {
      font-size: 32px;
    }

    :host([tp-size='lg']) {
      font-size: 48px;
    }
  </style>
  <path d="M11.5564 13.3L14.4016 7C14.9675 7 15.5103 7.22125 15.9104 7.61507C16.3106 8.0089 16.5354 8.54304 16.5354 9.09999V11.9H20.5613C20.7675 11.8977 20.9718 11.9395 21.1599 12.0226C21.3481 12.1057 21.5156 12.2281 21.6509 12.3812C21.7862 12.5344 21.8861 12.7146 21.9436 12.9095C22.0011 13.1044 22.0148 13.3093 21.9839 13.51L21.0023 19.8099C20.9509 20.1437 20.7786 20.448 20.5172 20.6667C20.2557 20.8854 19.9228 21.0037 19.5797 20.9999H11.5564M11.5564 13.3V20.9999M11.5564 13.3H9.42257C9.04528 13.3 8.68345 13.4475 8.41666 13.71C8.14988 13.9726 8 14.3287 8 14.7V19.5999C8 19.9712 8.14988 20.3273 8.41666 20.5899C8.68345 20.8524 9.04528 20.9999 9.42257 20.9999H11.5564M5.55643 9.29996L8.40158 3C8.96751 3 9.51027 3.22125 9.91044 3.61507C10.3106 4.0089 10.5354 4.54304 10.5354 5.09999L10.5 8H13.5M5.55643 9.29996V16.9999M5.55643 9.29996H3.42257C3.04528 9.29996 2.68345 9.44746 2.41666 9.71001C2.14988 9.97256 2 10.3286 2 10.7V15.5999C2 15.9712 2.14988 16.3273 2.41666 16.5899C2.68345 16.8524 3.04528 16.9999 3.42257 16.9999H5.55643M5.55643 16.9999H8"/>
</svg>
