<svg viewBox="0 0 24 24">
  <title>award-triumph</title>
  <style>
    :host {
      --stroke-width: 2;
    }

    :host {
      font-size: 24px;
      stroke: inherit;
    }

    :host path {
      fill: currentColor;
    }

    :host(.ion-color) path {
      --stroke: var(--ion-color-base) !important;
    }

    :host([tp-size='sm']) {      font-size: 16px;
    }

    :host([tp-size='md']) {      font-size: 32px;
    }

    :host([tp-size='lg']) {      font-size: 48px;
    }
  </style>
  <path d="M8 21C7.44772 21 7 21.4477 7 22C7 22.5523 7.44772 23 8 23V21ZM16 23C16.5523 23 17 22.5523 17 22C17 21.4477 16.5523 21 16 21V23ZM11 22C11 22.5523 11.4477 23 12 23C12.5523 23 13 22.5523 13 22H11ZM8 3V2H7V3H8ZM16 3H17V2H16V3ZM3 6V5H2V6H3ZM21 6H22V5H21V6ZM8 23H16V21H8V23ZM11 17V22H13V17H11ZM15 12.7984C15 14.6135 13.6111 16 12 16V18C14.8072 18 17 15.6243 17 12.7984H15ZM12 16C10.3889 16 9 14.6135 9 12.7984H7C7 15.6243 9.19281 18 12 18V16ZM9 12.7984V3H7V12.7984H9ZM8 4H16V2H8V4ZM15 3V12.7984H17V3H15ZM6.5 12C5.16901 12 4 10.8457 4 9.30769H2C2 11.8481 3.96499 14 6.5 14V12ZM4 9.30769V6H2V9.30769H4ZM3 7H8V5H3V7ZM7.55196 11.7507C7.23195 11.911 6.87633 12 6.5 12V14C7.19727 14 7.8588 13.834 8.44804 13.5387L7.55196 11.7507ZM17.5 14C20.035 14 22 11.8481 22 9.30769H20C20 10.8457 18.831 12 17.5 12V14ZM22 9.30769V6H20V9.30769H22ZM21 5H16V7H21V5ZM15.552 13.5387C16.1412 13.834 16.8027 14 17.5 14V12C17.1237 12 16.7681 11.911 16.448 11.7507L15.552 13.5387Z" />
</svg>
