<svg viewBox="0 0 24 24">
  <title>book-open</title>
  <style>
    :host {
      --stroke-width: 2;
    }

    :host {
      font-size: 24px;
      stroke: inherit;
    }

    :host path {
      stroke: currentColor;
      stroke-width: var(--stroke-width);
      fill: none;
      stroke-linecap: round;
      stroke-linejoin: round;
    }

    :host(.ion-color) path {
      --stroke: var(--ion-color-base) !important;
    }

    :host([tp-size='sm']) {      font-size: 16px;
    }

    :host([tp-size='md']) {      font-size: 32px;
    }

    :host([tp-size='lg']) {      font-size: 48px;
    }
  </style>
  <path d="M12 7C12 5.93913 11.5786 4.92172 10.8284 4.17157C10.0783 3.42143 9.06087 3 8 3H2V18H9C9.79565 18 10.5587 18.3161 11.1213 18.8787C11.6839 19.4413 12 20.2044 12 21M12 7V21M12 7C12 5.93913 12.4214 4.92172 13.1716 4.17157C13.9217 3.42143 14.9391 3 16 3H22V18H15C14.2044 18 13.4413 18.3161 12.8787 18.8787C12.3161 19.4413 12 20.2044 12 21"/>
</svg>
