<svg viewBox="0 0 32 32" fill="none">
  <title>cpf</title>
  <style>
    :host {
      --stroke-width: 2;
    }

    :host {
      font-size: 24px;
      stroke: inherit;
    }

    :host path {
      stroke: currentColor;
      stroke-width: var(--stroke-width);
      fill: none;
      stroke-linecap: round;
      stroke-linejoin: round;
    }

    :host(.ion-color) path {
      --stroke: var(--ion-color-base) !important;
    }

    :host([tp-size='sm']) {      font-size: 16px;
    }

    :host([tp-size='md']) {      font-size: 32px;
    }

    :host([tp-size='lg']) {      font-size: 48px;
    }
  </style>
  <path d="M21.9997 22.6666V21.3333C21.9997 20.626 21.6836 19.9478 21.121 19.4477C20.5584 18.9476 19.7953 18.6666 18.9997 18.6666H12.9997C12.204 18.6666 11.441 18.9476 10.8784 19.4477C10.3157 19.9478 9.99967 20.626 9.99967 21.3333V22.6666M7.99967 2.66663H23.9997C25.4724 2.66663 26.6663 3.86053 26.6663 5.33329V26.6666C26.6663 28.1394 25.4724 29.3333 23.9997 29.3333H7.99967C6.52692 29.3333 5.33301 28.1394 5.33301 26.6666V5.33329C5.33301 3.86053 6.52692 2.66663 7.99967 2.66663ZM19.333 11.3333C19.333 13.1742 17.8406 14.6666 15.9997 14.6666C14.1587 14.6666 12.6663 13.1742 12.6663 11.3333C12.6663 9.49234 14.1587 7.99996 15.9997 7.99996C17.8406 7.99996 19.333 9.49234 19.333 11.3333Z" stroke-width="3" stroke-linecap="round" stroke-linejoin="round"/>
</svg>
