<svg viewBox="0 0 24 24">
  <title>filter-3</title>
  <style>
    :host {
      --stroke-width: 2;
    }

    :host {
      font-size: 24px;
      stroke: inherit;
    }

    :host path {
      stroke: currentColor;
      stroke-width: var(--stroke-width);
      fill: none;
      stroke-linecap: round;
      stroke-linejoin: round;
    }

    :host(.ion-color) path {
      --stroke: var(--ion-color-base) !important;
    }

    :host([tp-size='sm']) {      font-size: 16px;
    }

    :host([tp-size='md']) {      font-size: 32px;
    }

    :host([tp-size='lg']) {      font-size: 48px;
    }
  </style>
  <path d="M14 22C16.2091 22 18 20.2091 18 18C18 15.7909 16.2091 14 14 14C11.7909 14 10 15.7909 10 18C10 20.2091 11.7909 22 14 22Z"/>
  <path d="M10 10C12.2091 10 14 8.20914 14 6C14 3.79086 12.2091 2 10 2C7.79086 2 6 3.79086 6 6C6 8.20914 7.79086 10 10 10Z"/>
  <path d="M2 18L10 18"/>
  <path d="M2 6L6 6"/>
  <path d="M18 18L22 18"/>
  <path d="M14 6L22 6"/>
</svg>
