<svg viewBox="0 0 24 24">
  <title>help-circle</title>
  <style>
    :host {
      --stroke-width: 2;
    }

    :host {
      font-size: 24px;
      stroke: inherit;
    }

    :host path {
      stroke: currentColor;
      stroke-width: var(--stroke-width);
      fill: none;
      stroke-linecap: round;
      stroke-linejoin: round;
    }

    :host(.ion-color) path {
      --stroke: var(--ion-color-base) !important;
    }

    :host([tp-size='sm']) {
      font-size: 16px;
    }

    :host([tp-size='md']) {
      font-size: 32px;
    }

    :host([tp-size='lg']) {
      font-size: 48px;
    }
  </style>
  <path d="M9.08984 8.99999C9.32495 8.33166 9.789 7.7681 10.3998 7.40912C11.0106 7.05015 11.7287 6.91893 12.427 7.0387C13.1253 7.15848 13.7587 7.52151 14.2149 8.06352C14.6712 8.60552 14.9209 9.29151 14.9198 9.99999C14.9198 12 11.9198 13 11.9198 13M12 17H12.01M22 12C22 17.5228 17.5228 22 12 22C6.47715 22 2 17.5228 2 12C2 6.47715 6.47715 2 12 2C17.5228 2 22 6.47715 22 12Z"/>
</svg>
