<svg viewBox="0 0 24 24">
  <title>rate-regular</title>
  <style>
    :host {
      --stroke-width: 2;
    }

    :host {
      font-size: 24px;
      stroke: inherit;
    }

    :host path {
      stroke: none;
      stroke-width: var(--stroke-width);
      fill: currentColor;
      stroke-linecap: round;
      stroke-linejoin: round;
    }

    :host(.ion-color) path {
      --stroke: var(--ion-color-base) !important;
    }

    :host([tp-size='sm']) {
      font-size: 16px;
    }

    :host([tp-size='md']) {
      font-size: 32px;
    }

    :host([tp-size='lg']) {
      font-size: 48px;
    }
  </style>
  <path d="M5 21C5 21.5523 5.44772 22 6 22C6.55229 22 7 21.5523 7 21H5ZM5.98995 9.85858C5.91184 9.31184 5.40531 8.93195 4.85858 9.01005C4.31184 9.08816 3.93195 9.59469 4.01005 10.1414L5.98995 9.85858ZM12 17H13V16H12V17ZM11 21C11 21.5523 11.4477 22 12 22C12.5523 22 13 21.5523 13 21H11ZM16 14L16.9615 13.7253L16.7543 13H16V14ZM18 21L17.0385 21.2747L17.2457 22H18V21ZM10 14L9.01361 14.1644L9.15287 15H10V14ZM9.98639 7.8356C9.8956 7.29083 9.38037 6.92281 8.8356 7.01361C8.29083 7.1044 7.92281 7.61963 8.01361 8.1644L9.98639 7.8356ZM13 12C13.5523 12 14 11.5523 14 11C14 10.4477 13.5523 10 13 10V12ZM10 10C9.44772 10 9 10.4477 9 11C9 11.5523 9.44772 12 10 12V10ZM20 22C20.5523 22 21 21.5523 21 21C21 20.4477 20.5523 20 20 20V22ZM11 5.5C11 6.32843 10.3284 7 9.5 7V9C11.433 9 13 7.433 13 5.5H11ZM9.5 7C8.67157 7 8 6.32843 8 5.5H6C6 7.433 7.567 9 9.5 9V7ZM8 5.5C8 4.67157 8.67157 4 9.5 4V2C7.567 2 6 3.567 6 5.5H8ZM9.5 4C10.3284 4 11 4.67157 11 5.5H13C13 3.567 11.433 2 9.5 2V4ZM5 17L5 21H7L7 17H5ZM4.01005 10.1414L5.01005 17.1414L6.98995 16.8586L5.98995 9.85858L4.01005 10.1414ZM11 17V21H13V17H11ZM15.0385 14.2747L17.0385 21.2747L18.9615 20.7253L16.9615 13.7253L15.0385 14.2747ZM12 16H6V18H12V16ZM16 13H10V15H16V13ZM10.9864 13.8356L9.98639 7.8356L8.01361 8.1644L9.01361 14.1644L10.9864 13.8356ZM13 10H10V12H13V10ZM20 20H18V22H20V20Z"/>
</svg>
