<svg viewBox="0 0 24 24">
  <title>radio</title>
  <style>
    :host {
      --stroke-width: 2;
    }

    :host {
      font-size: 24px;
      stroke: inherit;
    }

    :host path {
      stroke: currentColor;
      stroke-width: var(--stroke-width);
      fill: none;
      stroke-linecap: round;
      stroke-linejoin: round;
    }

    :host(.ion-color) path {
      --stroke: var(--ion-color-base) !important;
    }

    :host([tp-size='sm']) {
      font-size: 16px;
    }

    :host([tp-size='md']) {
      font-size: 32px;
    }

    :host([tp-size='lg']) {
      font-size: 48px;
    }
  </style>
  <path d="M16.24 7.75969C16.7979 8.31693 17.2404 8.97866 17.5424 9.70705C17.8443 10.4354 17.9997 11.2162 17.9997 12.0047C17.9997 12.7932 17.8443 13.5739 17.5424 14.3023C17.2404 15.0307 16.7979 15.6924 16.24 16.2497M7.76 16.2397C7.20214 15.6824 6.75959 15.0207 6.45764 14.2923C6.1557 13.5639 6.00028 12.7832 6.00028 11.9947C6.00028 11.2062 6.1557 10.4254 6.45764 9.69705C6.75959 8.96866 7.20214 8.30693 7.76 7.74969M19.07 4.92969C20.9447 6.80496 21.9979 9.34805 21.9979 11.9997C21.9979 14.6513 20.9447 17.1944 19.07 19.0697M4.93 19.0697C3.05529 17.1944 2.00214 14.6513 2.00214 11.9997C2.00214 9.34805 3.05529 6.80496 4.93 4.92969M14 11.9997C14 13.1043 13.1046 13.9997 12 13.9997C10.8954 13.9997 10 13.1043 10 11.9997C10 10.8951 10.8954 9.99969 12 9.99969C13.1046 9.99969 14 10.8951 14 11.9997Z"/>
</svg>
