<svg viewBox="0 0 24 24">
  <title>settings</title>
  <style>
    :host {
      --stroke-width: 2;
    }

    :host {
      font-size: 24px;
      stroke: inherit;
    }

    :host path {
      stroke: currentColor;
      stroke-width: var(--stroke-width);
      fill: none;
      stroke-linecap: round;
      stroke-linejoin: round;
    }

    :host(.ion-color) path {
      --stroke: var(--ion-color-base) !important;
    }

    :host([tp-size='sm']) {
      font-size: 16px;
    }

    :host([tp-size='md']) {
      font-size: 32px;
    }

    :host([tp-size='lg']) {
      font-size: 48px;
    }
  </style>
  <path d="M12 15c1.657 0 3-1.343 3-3s-1.343-3-3-3c-1.657 0-3 1.343-3 3s1.343 3 3 3z"></path>
  <path d="M19.4 15c-0.133 0.302-0.173 0.636-0.114 0.961s0.213 0.624 0.444 0.859l0.060 0.060c0.186 0.186 0.333 0.406 0.434 0.649s0.153 0.503 0.153 0.766-0.052 0.523-0.153 0.766c-0.101 0.243-0.248 0.463-0.434 0.649s-0.406 0.333-0.649 0.434c-0.243 0.101-0.503 0.153-0.766 0.153s-0.523-0.052-0.766-0.153c-0.243-0.101-0.463-0.248-0.649-0.434l-0.060-0.060c-0.236-0.231-0.535-0.385-0.859-0.444s-0.659-0.019-0.961 0.114c-0.296 0.127-0.548 0.337-0.726 0.606s-0.273 0.583-0.274 0.904v0.17c0 0.53-0.211 1.039-0.586 1.414s-0.884 0.586-1.414 0.586c-0.53 0-1.039-0.211-1.414-0.586s-0.586-0.884-0.586-1.414v-0.090c-0.008-0.331-0.115-0.652-0.308-0.921s-0.462-0.474-0.772-0.589c-0.302-0.133-0.636-0.173-0.961-0.114s-0.624 0.213-0.859 0.444l-0.060 0.060c-0.186 0.186-0.406 0.333-0.649 0.434s-0.503 0.153-0.766 0.153-0.523-0.052-0.766-0.153c-0.243-0.101-0.463-0.248-0.649-0.434s-0.333-0.406-0.434-0.649-0.152-0.503-0.152-0.766c0-0.263 0.052-0.523 0.152-0.766s0.248-0.463 0.434-0.649l0.060-0.060c0.231-0.236 0.385-0.535 0.444-0.859s0.019-0.659-0.114-0.961c-0.127-0.296-0.337-0.548-0.606-0.726s-0.583-0.273-0.904-0.274h-0.17c-0.53 0-1.039-0.211-1.414-0.586s-0.586-0.884-0.586-1.414c0-0.53 0.211-1.039 0.586-1.414s0.884-0.586 1.414-0.586h0.090c0.331-0.008 0.652-0.115 0.921-0.307s0.474-0.462 0.589-0.772c0.133-0.302 0.173-0.636 0.114-0.961s-0.213-0.624-0.444-0.859l-0.060-0.060c-0.186-0.186-0.333-0.406-0.434-0.649s-0.152-0.503-0.152-0.766c0-0.263 0.052-0.523 0.152-0.766s0.248-0.463 0.434-0.649c0.186-0.186 0.406-0.333 0.649-0.434s0.503-0.152 0.766-0.152c0.263 0 0.523 0.052 0.766 0.152s0.463 0.248 0.649 0.434l0.060 0.060c0.236 0.231 0.535 0.385 0.859 0.444s0.659 0.019 0.961-0.114h0.080c0.296-0.127 0.548-0.337 0.726-0.606s0.273-0.583 0.274-0.904v-0.17c0-0.53 0.211-1.039 0.586-1.414s0.884-0.586 1.414-0.586c0.53 0 1.039 0.211 1.414 0.586s0.586 0.884 0.586 1.414v0.090c0.001 0.322 0.097 0.636 0.274 0.904s0.43 0.479 0.726 0.606c0.302 0.133 0.636 0.173 0.961 0.114s0.624-0.213 0.859-0.444l0.060-0.060c0.186-0.186 0.406-0.333 0.649-0.434s0.503-0.152 0.766-0.152c0.263 0 0.523 0.052 0.766 0.152s0.463 0.248 0.649 0.434c0.186 0.186 0.333 0.406 0.434 0.649s0.153 0.503 0.153 0.766-0.052 0.523-0.153 0.766c-0.101 0.243-0.248 0.463-0.434 0.649l-0.060 0.060c-0.231 0.236-0.385 0.535-0.444 0.859s-0.019 0.659 0.114 0.961v0.080c0.127 0.296 0.337 0.548 0.606 0.726s0.583 0.273 0.904 0.274h0.17c0.53 0 1.039 0.211 1.414 0.586s0.586 0.884 0.586 1.414c0 0.53-0.211 1.039-0.586 1.414s-0.884 0.586-1.414 0.586h-0.090c-0.322 0.001-0.636 0.097-0.905 0.274s-0.479 0.43-0.606 0.726z"></path>
</svg>
