<svg viewBox="0 0 24 24">
  <title>zap</title>
  <style>
    :host {
      --stroke-width: 2;
    }

    :host {
      font-size: 24px;
      stroke: inherit;
    }

    :host path {
      fill: currentColor;
      stroke-linecap: round;
      stroke-linejoin: round;
    }

    :host(.ion-color) path {
      --stroke: var(--ion-color-base) !important;
    }

    :host([tp-size='sm']) {      font-size: 16px;
    }

    :host([tp-size='md']) {      font-size: 32px;
    }

    :host([tp-size='lg']) {      font-size: 48px;
    }
  </style>
  <path d="M14.7834 11.9557C14.5375 11.8206 13.327 11.1749 13.1001 11.0848C12.8731 10.9947 12.7066 10.9459 12.5326 11.1899C12.3586 11.4302 11.8555 11.9745 11.7042 12.1359C11.5529 12.2973 11.4053 12.3123 11.1594 12.1772C10.9136 12.042 10.1154 11.7493 9.19236 10.8671C8.47361 10.1802 8.00076 9.34685 7.86457 9.09159C7.72839 8.83634 7.86457 8.70871 7.99319 8.58859C8.11046 8.47973 8.25421 8.30706 8.38661 8.16817C8.51523 8.02928 8.56062 7.92417 8.65141 7.76276C8.7422 7.60135 8.70437 7.45496 8.64763 7.32733C8.59088 7.1997 8.13316 5.95721 7.94401 5.4542C7.75487 4.94745 7.54303 5.02252 7.3955 5.01877C7.24797 5.01502 7.08152 4.98499 6.91507 4.98123C6.74863 4.97372 6.47248 5.02628 6.23416 5.26652C5.99584 5.50676 5.32249 6.08484 5.27709 7.30856C5.2317 8.53228 6.08284 9.7485 6.2039 9.91742C6.32117 10.0901 7.83431 12.7402 10.3423 13.8326C12.8542 14.9249 12.8655 14.5908 13.327 14.5683C13.7885 14.5458 14.8326 14.0203 15.0634 13.4497C15.2941 12.8754 15.313 12.3799 15.2525 12.2748C15.192 12.1697 15.0293 12.0983 14.7834 11.967V11.9557ZM10.1797 17.8529C8.51901 17.8529 6.9756 17.3574 5.68186 16.5128L2.54208 17.5113L3.56346 14.5008C2.5837 13.1644 2.0087 11.5203 2.0087 9.74475C2.0087 5.27027 5.6743 1.63288 10.1797 1.63288C14.6851 1.63288 18.3545 5.27027 18.3545 9.74475C18.3545 14.2192 14.6889 17.8566 10.1797 17.8566V17.8529ZM10.1797 0C4.75884 0 0.363155 4.36186 0.363155 9.74099C0.363155 11.5803 0.877624 13.3033 1.77416 14.771L0 20L5.43598 18.2733C6.8432 19.0465 8.45848 19.4857 10.1797 19.4857C15.6043 19.4857 20 15.1239 20 9.74099C20 4.35811 15.6043 0 10.1797 0Z"/>
</svg>
